<svg version="1.2" xmlns="http://www.w3.org/2000/svg" viewBox="0 0 1551 1552" width="1551" height="1552"><style>.a{fill:#085fac}.b{fill:#fff}</style><path class="a" d="m1550.4 0v1551.3h-1550.4v-1551.3z"/><path class="b" d="m1024.7 769.2c41.9-8.6 79.4-31.3 106.5-64.6 27.4-32.9 42.3-74.4 42.6-117.1 0-186.8-197.3-207.9-319.9-207.9h-474.6v794.9h165.3v-624.2h496.1l-58.7 101.4c0 0-5.5 21.1-48.2 21.1h-181.3c-18.8 2.8-35.6 12.6-47.8 27.5-11.7 14.8-17.6 33.6-16 52.8v165.3c0 0 5.5-63.9 58.7-69.3h239.7l-47.8 101.4c-5.1 7.8-12.5 14.5-20.8 19.2-8.2 4.7-17.6 7.4-27.4 7.4h-143.7c-8.6 0.8-16.8 3.1-24.3 7.1-7.4 3.5-14.1 9-19.5 15.2-5.5 6.7-9.4 14.1-12.2 22-2.3 8.2-3.5 16.8-2.7 25v128.1h159.7c133.6 0 320-16.1 320-213.4 5.4-85.4-42.7-154.7-143.7-191.9z"/></svg>