<svg version="1.2" xmlns="http://www.w3.org/2000/svg" viewBox="0 0 1538 1543" width="1538" height="1543">
	<title>airtel-svg copy-svg</title>
	<style>
		.s0 { fill: #e90000 } 
	</style>
	<path id="Layer" fill-rule="evenodd" class="s0" d="m457 1542.6c-72 0-124.1-24.4-155.3-72.9-78.4-120.1 1.8-270.9 39.8-330.3 26.7-40.8 66.1-84.3 103.3-113.3 37.1-28.5 93.7-63.4 153.5-63.4h4.6c62 1.8 128.6 41.7 131.3 105.6 2.3 48-32.1 81.5-57.1 106l-4.5 4.5c-20.4 19.5-40.3 37.6-59.8 55.7-33.9 30.9-66.1 60.3-97.8 97 0 0-87 123.2 56.2 85.6 8.1-2.2 16.7-5.9 26.7-9.5l5-1.3c33.9-12.7 66.1-30.4 94.6-45.8l5.9-2.7c61.2-32.6 130-80.7 204.7-142.7 146.3-122.8 252.3-250.1 313.5-380.2 44.8-95.1 53-198.9 19.9-265-18.6-37.6-50.7-61.6-94.2-71.6-13.1-3.2-28.1-4.5-42.6-4.5-29.4 0-62 5.9-99.2 18.5-142.2 48.5-269 131.4-391.3 211.6l-15 9.5c-14.9 10.5-29.9 20-44.8 29.5-5.4 3.2-10.9 7.2-16.3 10.9-86.5 51.2-212.4 112.3-327 112.3-56.2 0-104.2-14.9-142.3-43.9-43-32.6-65.6-77-68.3-131-6.8-126.8 101.4-276.8 195.6-366q15.4-13.6 31.7-26.3 15.9-12.7 32.2-25.4 16.3-12.2 32.6-24 16.8-11.8 34-23.1l4.5-2.7q2.3-1.4 4.1-2.8l4.5-2.7q2.3-1.3 4.1-2.7 2.7-1.8 5-3.6 2.7-1.4 4.9-2.7 2.8-1.8 5-3.2 2.7-1.8 5.5-3.2l0.4-0.9 7.3-4.5c224.2-143.6 435.7-216.6 628.6-216.6 211.1 0 323 87.9 333.4 96.1 89.7 62 151.3 144 183 243.3 43 136.8 7.7 282.2-17.2 357-62.1 183.9-169.9 334.8-349.7 488.4-81.1 69.3-159.9 127.8-240.9 177.6l-20.4 12.3c-76.6 47.5-155.8 96.5-255.5 131.3-67 23.6-126.4 35.8-176.2 35.8z"/>
</svg>