<svg version="1.2" xmlns="http://www.w3.org/2000/svg" viewBox="0 0 1145 1555" width="1145" height="1555">
	<title>Coal_India_Logo-svg</title>
	<style>
		.s0 { fill: #000000 } 
	</style>
	<g id="surface1">
		<path id="path69" class="s0" d="m578.5 295.8c0.3 0 25.1 59.3 55.1 131.9l54.5 132-90.1 0.2c-49.6 0.1-99.4-0.1-110.9-0.5l-20.8-0.6 55.8-131.6c30.7-72.3 56.1-131.4 56.4-131.4zm-101.6 282.6l48.3 0.1c26.5 0.1 71.1 0.5 99 0.8l50.7 0.5-49.3 39.2c-45.6 36.4-49.4 39.2-51.2 38.1-1.5-1-71.7-57.5-92.1-74.3zm-22.9 11.6c0.3 0.4 13.3 27.7 28.6 60.7l27.8 59.8-3.9 3.3c-13.3 10.9-159.3 126.9-159.5 126.7-0.3-0.3 0.5-2.1 60.9-144.5 24.4-57.4 44.6-104.9 44.8-105.5 0.3-0.6 0.8-0.9 1.3-0.5zm247.7 3.3c0.2 0.2 2.8 6.2 5.8 13.6 3 7.2 18.2 44 33.8 81.7 15.6 37.7 35.4 85.5 43.8 106.2 8.5 20.5 16.6 40 17.9 43.2 1.2 3.1 1.8 5.4 1.2 5-0.6-0.3-36.9-29.5-80.6-64.9l-79.5-64.4 5-10.7c2.8-5.9 15.7-33 28.7-60.4 13-27.2 23.7-49.4 23.9-49.3zm-27.6 11.9c0.4 0.4-43.8 93.9-44.9 95.1-0.7 0.9-37.4-28.2-37.4-29.5 0-0.3 18.5-15.4 41-33.3 22.5-17.9 41.1-32.5 41.3-32.3zm-189.1 4.4c2.1 0.8 75 60.7 74.8 61.3-0.5 1.5-33.5 27.2-34.1 26.6-0.4-0.4-9.6-20-20.6-43.6-11.1-23.7-20.2-43.4-20.5-43.8-0.3-0.5-0.1-0.7 0.4-0.5zm90.9 73.3l22.1 17.9c12.5 10.1 22 18.4 21.8 19.1-0.7 3.2-41.9 88.9-42.4 88.3-1.7-1.7-43.2-92-42.6-92.7 0.4-0.3 9.8-7.8 21-16.6zm-57.2 45.6l2.3 4.7c1.2 2.7 11.9 25.8 23.9 51.3l21.7 46.5-0.1 112.2c-0.2 61.8-0.6 147.9-0.9 191.5l-0.5 79.2-117.2-166.8c-64.4-91.6-117.2-167.2-117.2-167.8 0-0.7 22.2-18.9 49.4-40.4 27.1-21.7 69.4-55.4 94-75zm117 2.9l92.2 74.6c50.8 41.1 92.1 75.2 92 75.7-0.1 0.7-52.9 75.4-117.4 166.2l-117.2 165.1-0.3-7.3c-0.2-4.2 0.4-89.8 1.2-190.4l1.6-182.9 21.8-45.8c11.9-25.1 22.7-47.8 23.9-50.5z"/>
		<path id="path63" fill-rule="evenodd" class="s0" d="m575.7 0.7c49.5 0.2 54.1 0.3 68.3 2.3 118.6 16.2 221.2 62.1 309.8 138.8 25.3 22 58.3 57.1 78.8 84 57.4 75.5 95.5 164.5 109.7 256.9l1.9 12.7-0.6 232.5c-0.3 127.8-1 256.3-1.3 285.5-0.8 51.3-0.9 53.5-3.2 66.2-14.8 82-44.2 154.6-89.4 221.5-91 134.7-235.5 224.8-396.9 247.9-46.5 6.5-101.1 7.2-148.1 1.7-113.1-13.2-219.1-59.1-306.8-133-29.3-24.7-64.1-61.6-87.9-93.2-56.6-75.1-94.2-164.8-107.6-257l-2.2-14.8 1.2-277.2c0.8-167.3 1.7-280.4 2.2-285.3 2-18 8.4-48.2 15.3-73.3 18.8-67.4 51.7-133.5 94.5-189.7 39.5-52 87.5-96.8 142.4-133 78.8-52 162.8-82 259.5-92.9 4.1-0.4 31.3-0.7 60.4-0.6zm-36.4 21.6c-121.4 8.9-228.6 51.8-322 128.9-17.9 14.8-52.3 48.8-67.4 66.8-60 71.5-100.2 153.9-118.1 242.1-6.5 32.2-5.8 6.3-7.4 313.2l-1.4 278.5 2.3 15.1c15.7 101.9 58.6 194.6 127 274 13.3 15.4 46.8 48.2 62.6 61.4 99.3 82 218.4 126.6 346 129.5l8.7 0.2 1.2 4.6 1 4.6 0.2-4.9v-4.7h12.4c38.3 0 91.9-7.8 134.3-19.6 35.2-9.7 62.5-20.1 96.5-36.7 47.4-23.1 86-49 126.4-84.8 94.7-83.9 158.6-201.9 176.6-325.9 1.8-12.5 1.8-18.8 2.4-291.3l0.6-278.6-2.9-16.9c-14.9-86.8-48.9-165.7-101.7-235.5-44-58.4-97.5-106-162.2-144.6-17.6-10.4-57.5-29.9-76.7-37.4-49.8-19.5-99.8-31.5-153.1-36.7-16.8-1.7-69.2-2.5-85.3-1.3zm177.2 46c12 0.3 13.5 0.5 23 3.7 16.5 5.5 32 15.2 47.9 29.9 12.4 11.5 28 31.2 36.9 46.7l2.4 4.2-9.6 5.1c-5.2 2.9-10 5.2-10.5 5.2-0.5 0-2.4-2.6-4.3-5.9-8.8-14.8-28.2-37.3-40.8-47.3-8.8-6.9-19.8-13.1-28.3-16-6.5-2.2-8.9-2.6-18.1-2.6-12.4 0-16.5 1.4-23.5 7.9-6.7 6.1-11.6 18.4-11.6 29.2v3.3l17.8 4.4c82.2 20.4 156.4 61.1 213.2 117 68.8 67.6 107.3 152.1 110.1 241.4l0.6 17.1h-16.9v-9.2c0-8.3-0.2-9.1-1.6-8.7-7.8 2.2-118.7 27.9-119.2 27.6-0.9-1.1-5.4-21.1-4.9-21.6 0.4-0.4 27.4-6.9 60.2-14.6 32.7-7.7 60.4-14.3 61.4-14.7 1.4-0.5 2-1.3 1.7-2.8-3.2-21.8-5-30-6.4-30-0.6 0-28.5 8-61.9 17.8-33.4 9.8-61.3 17.9-62.1 18.1-0.9 0.1-2.2-2.7-4.4-9.9-1.7-5.6-3.1-10.5-3.1-10.9 0-0.6 5-2.3 11.1-4.1 6.1-1.7 10.8-3.4 10.4-3.7-0.4-0.3-3.4-2.8-6.7-5.3-22.4-17.7-38-51.6-34.1-74.1 3.3-19.8 18.6-33.7 43.8-40 8.1-2 15.2-2.9 15.2-1.9 0 0.3-1 5.2-2.3 11-1.3 5.8-2.7 13.2-3.1 16.3-2.1 14 3.7 22.8 14.6 22.8 9.2 0 14.7-4.5 20.8-17 6.7-13.8 10.2-30.6 7.8-39-2.3-8.6-32.4-44.4-51.4-61.1l-6.5-5.6-9.9 11.6c-5.4 6.5-10.4 11.6-11 11.6-0.8-0.1-15.6-9.7-32.9-21.4-17.4-11.7-33-21.8-34.6-22.2-3.9-1.2-7.5-0.2-8.2 2.1-2.5 7.7 7.9 21.6 31.6 41.8 18.5 15.8 23.7 23.1 23.7 33.6 0 6.9-2.9 12.7-10.1 20.4-18.1 19.4-43 22.6-64.6 8.3-7-4.6-14.1-12.1-18.4-19.4-3.8-6.4-22.6-54.2-21.5-54.9 0.9-0.8 21.2-7.1 21.5-6.7 0.3 0.2 4 9.6 8.4 20.9 9.8 25.8 12.9 32.3 18 37.2 8.4 8.1 19.8 10.6 28.6 6.2 2.7-1.3 7-4.1 9.5-6.3 4.1-3.7 4.4-4.1 3.7-6.9-0.4-2.3-2.5-4.8-6.8-8.8-29.4-26.7-46.3-50.1-46.5-64.5-0.3-22.3 21.2-34 42.8-23.3 2.4 1.2 14.7 9.2 27.4 17.8 12.8 8.6 23.8 15.8 24.5 16.1 1.3 0.4 7.1-5.8 7.1-7.6 0-1.2-18.6-14.9-31.8-23.5-19.3-12.6-50.3-29.3-68-36.5l-3.3-1.4-4.8 14.8c-10.9 33.2-18.4 41.9-36.2 41.9-4.3-0.1-9.8-0.5-12.4-1.2-12-2.9-23.2-10.5-27.1-18.5-3.5-7.3-2.8-12.1 5.6-37 4.1-12.2 7.3-22.4 7.2-22.5-1-0.9-17.9-4.1-18.5-3.6-0.5 0.7-11.8 43.3-22.7 86.3-2.3 9.3-4.5 17.3-4.9 17.7-0.6 0.7-18.9-3.4-21.1-4.8-0.9-0.5 2-12.9 12.3-52.3 7.3-28.4 13.2-51.7 13.1-51.8-0.6-0.5-26.1-3.8-33.8-4.4-4.3-0.3-8.8-0.7-9.8-1l-2.2-0.4v14.7c0 13.2-0.2 14.6-1.6 14.7-0.9 0.1-19.6 0.4-41.6 0.7-38.2 0.6-40 0.7-41.3 2.3-1.8 2.6-1.7 4 1.1 6.7l2.3 2.3 34.8-0.3 34.8-0.4 5.3 2.6c11.8 5.8 18.8 19.7 16.3 33-3.7 20.3-21.8 32.5-48.5 32.8-4.8 0-8.6 0.3-8.6 0.5 0 0.3 1.5 1.8 3.4 3.4 3.8 3.3 4.3 2.3-5.2 13.4-5.1 6-6.2 6.9-7.5 6-0.8-0.6-11.8-9.7-24.3-20.2l-22.9-19.1 8.2-8.1 8.1-8 9.7 2.7c30.1 8.4 48.9 8.9 60 1.5 5.4-3.6 6-8.8 1.5-14.1-3.8-4.5-6.8-4.9-40.9-4.9h-31.4l-6.5-3.1c-11.1-5.5-17.2-14.3-17.3-24.9 0-10.6 7.6-20.4 17.8-23.1 2-0.4 18.8-1.2 37.4-1.5 33.9-0.7 34.1-0.7 33.5-2.6-0.3-1.1-0.6-3.3-0.6-5v-3.1l-22.3 0.5c-22.1 0.4-42 2.3-67.5 6.1-6.7 1-12.3 1.6-12.7 1.2-0.6-0.7-4.6-15.1-4.2-15.4 0.4-0.4 34.1-5 48.1-6.5 11.6-1.3 22-1.7 47.1-1.6 32.5 0 52 1.2 74.7 4.6 4.9 0.7 9.2 1.2 9.4 1 0.1-0.2 0.7-3.4 1.3-7.2 2.3-16 7.4-27.4 16.8-36.9 7-6.9 14.2-11.1 23.8-13.7 3.6-1 8.4-1.3 18-1.1zm0.9 90.3c-0.1 0-3.2 8.7-6.9 19.4-6.9 20.4-7.1 21.2-3.6 25.5 2.4 3 7.7 5.4 11.7 5.4 7.1 0 10.9-5.9 18.7-29.1 3-9.2 4-13.2 3.3-13.5-0.6-0.2-6.1-2.1-12.2-4.1-5.9-2-11-3.6-11-3.6zm247.9 195.3l-5.6-11v4.8c-0.1 7.9-2.8 18.5-6.7 26.5-15.9 32.9-57.4 36-72 5.3-2.6-5.7-5.3-16-5.4-20.9 0-3.5-1.4-3.1-4.2 1.1-3.4 5-4.2 9.4-3.2 17.2 2.9 22.5 18.5 42.5 44.3 56.8l5.1 2.8 36.3-10.7c19.9-6 36.4-11.1 36.8-11.5 0.8-0.7-5.2-16.4-13.1-34.4-3.7-8.3-9.3-20-12.3-26zm-544.4-210c1.1 0 1.9 1.1 2.5 3.4 0.5 1.9 1.6 5.4 2.3 7.8l1.3 4.3-11.5 3.8c-9.2 3.1-11.4 4.1-10.9 5.3 0.2 0.9 14.5 23 31.4 49.3 17.1 26.4 30.9 48.1 30.7 48.2-4.5 3.1-18.4 11.5-19 11.5-0.3 0-8.9-14-19-31.1-17.8-30.1-18.4-31.1-21.6-31.7-7.3-1.3-19.8 2.7-24.9 8.1-6.1 6.5-8.2 20.5-5.4 36.3 0.8 4.8 1.4 8.7 1.2 8.9-0.5 0.4-21.2 6.7-21.5 6.5-0.1-0.1-0.8-3.4-1.7-7.3-1.8-8-2.8-9-11.7-11.3-8.1-2.1-12.8-1.2-16.6 3.1-6.8 7.7-8.7 19-4.6 28.1 5.7 12.8 17.6 16.8 44.1 15 5.4-0.4 10.1-0.6 10.3-0.3 0.5 0.4 3.7 21.7 3.4 22.1 0 0.1-6 0.6-13.1 1.2-15.2 1-30.8 0-38.6-2.7-30.5-10.6-43.4-45.3-26.5-71.1 5.5-8.1 10.5-13.3 16-16.3 4.6-2.6 5.6-2.8 14.6-2.8 7.4 0 10.9 0.5 15 1.9l5.1 1.8 1.2-5.4c1.5-7.9 6.3-17.6 11.3-23.1 5.5-6.1 14.8-10.9 22.6-11.8 3.2-0.4 5.7-0.9 5.7-1.2 0-0.3-2.5-4.6-5.8-9.5l-5.7-8.9-11.1 5.2c-36 17-63.8 34.3-93.5 58.7-11.7 9.5-40.7 37.4-40.7 39 0 0.5 20.2 13.9 44.9 29.7 24.7 15.8 49.4 31.6 54.8 35.2l10 6.4-5.9 9.1c-3.4 5.1-6.6 9.1-7.2 9.1-0.8-0.1-26.1-16-56.5-35.5-30.3-19.4-55.4-35.3-55.7-35.3-1.6 0-19.3 25.4-28.2 40.5-6.1 10.5-17.4 33.3-22 44.8l-3.3 7.8 18.7 6.9c10.1 3.8 19.3 7.1 20.2 7.5 1.5 0.6 1.6-0.3 1.6-10.8 0-34.9 13.2-53.5 39.7-56.1 11.8-1.1 24.2 2.5 33.8 9.9 10.7 8.1 20.3 25.1 24.2 42.5 0.9 4.4 1.9 3.8-10.3 6.6-12 2.8-11.4 2.9-12-4.3-1.3-15-9.7-27.2-20.9-30.3-4.3-1.2-14-1.2-17.3 0-10 3.7-14.7 17-14 39 0.3 6.7 0.7 12.4 0.9 12.6 0.3 0.3 17.9 6.9 39.2 14.8 21.2 7.8 38.7 14.3 38.7 14.3 0.2 0.3-7.7 20.9-8.1 21.2-0.2 0.1-7.3-2.3-16-5.5-8.5-3.2-15.7-5.7-15.7-5.6-0.1 0.1-0.7 4.6-1.2 10.2-1.5 14-3.2 20.6-8.2 30.7-7.8 16.1-21.4 26.5-38.9 29.9-13.2 2.5-23.2-0.3-33.1-9.4-6.4-5.8-11.4-13.9-14.7-23.7-2.2-6.6-2.5-8.6-2.5-21.1-0.1-16.6 1.8-23.9 9.2-38.6 3.2-6.1 4.6-9.7 3.8-9.9-0.6-0.2-6.1-2.2-12.4-4.5-6.3-2.3-11.6-4.1-11.7-4.1-0.7 0-6.2 23.9-8.4 36.8-1.2 7.4-2.7 20.3-3.4 28.6l-1.1 15.1h-16.5l0.6-12.2c1.5-31.8 8.8-65.9 21-98.5 9.2-24.6 27.1-58.1 42.6-79.6 5-7.1 6.5-9.7 5.5-10-0.8-0.1-11.3 0.7-23.4 1.9l-21.9 2-3.4 10.1c-1.9 5.6-3.6 10.5-3.8 10.8-0.2 0.4-4-1-8.4-2.9q-8.1-3.6-8.3-5.2c-0.3-1.9 5.8-33.1 6.5-33.8 0.3-0.3 19.8-2.6 43.6-5l43-4.5 9.3-9.6c31.6-32.8 73.4-62.9 118-85.2 17.5-8.6 29.7-13.8 50.7-21.5 9.4-3.4 17.8-6.3 18.6-6.3zm-211.7 287.3c-1 0-4.9 5.5-7.4 10.5-8 15.8-9.9 36.4-4.5 47 5.4 10.4 18.2 15.6 28.3 11.4 4.7-1.9 12.1-9 14.7-14.1 5.3-10.3 7-25.3 4.3-37.6l-1.1-5.1-16.8-6.1c-9.3-3.3-17.1-6-17.5-6zm30.2 658.1c28.4 1.1 50.2 18.6 61.1 49.2 3.1 8.8 3.9 24 1.7 32.7-2.4 9.8-7.5 18.8-15.1 26.4-5.7 5.9-6.9 6.6-7.9 5.5-0.7-0.7-4.6-7-8.8-13.8l-7.5-12.5 4.5-5.8c7.5-10 8.4-19 3.1-30.5-9.4-19.8-29.3-24.6-54.2-12.9-16.9 8-29 18-34.3 28.7-2.3 4.6-2.6 6.3-2.6 14 0 7.5 0.3 9.3 2.5 13.7 7.2 14.5 20 20.7 35.5 17.1l5.8-1.3 8.3 13.7 8.4 13.8-3.1 1.3c-10.1 4.2-28.3 5.5-39.4 2.7-15-3.9-27.9-13.4-36.9-27.3-16.8-26-16.7-51.6 0.5-75.4 12.5-17.5 41-34.6 64.2-38.8 2.8-0.5 9.1-0.7 14.2-0.5zm714.3 20.7c34.1 16.5 36.6 17.5 40.5 16 2.7-1.1 7.8-0.2 7.8 1.4 0 0.5-3.1 7-6.9 14.5-6.6 13-7.1 13.7-9.6 13.7-1.6 0-3.9-0.4-5.2-0.9-1.4-0.5-2.6-0.8-2.8-0.6-0.2 0.1 0.4 3.7 1.1 8 1.3 6.4 1.4 8.9 0.5 14.6-2.7 17.5-15.7 31.8-30.4 33.5-13.1 1.5-30-7.7-35.9-19.6-2.4-4.8-2.6-6.1-2.5-14.9 0.1-8.9 0.4-10.5 4.9-24.2 5.8-17.7 6.3-21.7 2.6-24.8-6.1-5.2-13.1-1.7-18.3 9.2-4.1 8.7-3.1 15.6 3.1 20.3l2.3 1.6-5.9 12.5c-3.4 6.7-6.3 12.7-6.8 13.1-2.1 2.1-15.7-10.6-19.4-18.1-2.6-5.6-3.5-16.6-1.8-24.1 4.7-21 22.2-43.5 36.4-47 8.4-2 13.3-0.2 46.3 15.8zm-14.4 29.8c0 1.5-1.3 7.8-2.9 14.1-3.4 13.4-3.2 16.9 1.4 21.5 5.9 5.8 14.5 5.7 18.7-0.2 2.2-3 4.9-11.4 4.9-14.9 0-7.8-5.4-15.2-14.6-20.1-6.7-3.5-7.5-3.5-7.5-0.4zm-121.3 13.4c1.7 0.7 20.7 16.2 20.7 17 0 0.2-4.3 5.7-9.6 12.1l-9.5 11.6-10.5-8.5c-5.8-4.7-10.5-9-10.5-9.5 0-0.5 4.1-5.9 9.1-12.1 5.5-6.7 9.6-10.8 10.3-10.6zm30.5 24.7c0.6 0.3 14.8 11.6 31.5 25 16.6 13.5 35.5 28.8 42 34 10.4 8.4 11.6 9.7 10.5 11-0.7 0.8-5 6.2-9.7 11.8-7.6 9.1-8.8 10.2-10.2 9.2-6.6-4.8-84-68-83.9-68.6 0.2-0.4 4.4-5.7 9.5-11.8 5.6-6.9 9.4-10.8 10.3-10.6zm-52.9 8c0.8-0.1 88.1 115.4 88.9 117.4 0.3 0.9-21.3 17.4-22.8 17.4-0.4 0-2.3-2.1-4.3-4.5l-3.5-4.6-0.6 6.1c-1.8 18-20.4 33.7-40 33.7-19.1 0-36.3-10.4-49.3-29.7-14.4-21.4-17-42.6-7.1-59.2 3.6-6.2 12.7-14.2 19.7-17.5 5.6-2.7 7.1-2.9 14.8-2.9 5.5 0.1 8.2-0.3 7.8-1-0.3-0.4-6.7-9-14.3-19.1-7.7-10.1-13.4-18.4-12.9-18.9 0.4-0.4 5.7-4.5 11.8-9 6.1-4.5 11.4-8.2 11.8-8.2zm7.6 76.8c-9.4 0-18.4 6.8-20.9 15.9-2.2 8.2 2.9 21.1 12.6 31.4 7.3 7.8 12.7 11.2 19.3 11.8 10.5 1.1 21.1-7.2 23.1-18.2 2.1-11.1-10.6-31.7-23.7-38.1-4.1-2.1-6.9-2.8-10.4-2.8zm-471.2-34.6c14 9 24 21.6 27.4 34.1 6.5 25-10.5 57.3-37 70-9.6 4.5-15.7 5.8-25.9 5.3-9.8-0.6-15.9-2.7-25.5-8.9-13.1-8.5-22.5-19.5-26.6-31.3-2.6-7.3-2.8-19.5-0.5-28.3 6-22.6 25.5-42.5 47.8-48.4 13.2-3.6 27-1 40.3 7.5zm-48.1 32.7c-6.1 6.7-10.5 14.5-11.8 21.3-2.7 13 7.7 25.8 21.9 27 9.7 0.8 22-7.6 30.8-20.9 6.4-9.9 8-20 4.2-27.1-2-3.9-8-9.5-12.3-11.4-11.1-5-21.3-1.5-32.8 11.1zm218 11c2.2-0.1 28.3 4.1 28.9 4.6 0.6 0.5-18.2 134.3-20.2 143.7-0.5 2.2-0.8 2.4-3 2.1-1.3-0.2-7.8-1.2-14.4-2.2-6.5-1-12.1-2-12.3-2.3-0.3-0.3 4.2-33.2 9.9-73.2 5.9-40 10.8-72.7 11.1-72.7zm104.7 2.8l2.9-0.1 7.5 73.4c4.1 40.4 7.4 73.5 7.3 73.6-0.5 0.5-29.4 3.2-30.8 2.9-1.3-0.3-2.3-8.3-9.1-73-4-40-7.2-73-6.9-73.4 0.3-0.3 6.3-1.2 13.5-1.9 7.1-0.8 14.2-1.4 15.6-1.5zm-145.6 30.4c8.2 7.6 10.9 15 9.3 25-0.4 2.9-5.8 17.9-11.8 33.3-13.6 35.1-14.2 36.7-13.3 40.4 0.8 3.9 0.9 8.8 0.1 9.5-0.4 0.5-6.4-1.6-29.1-10.4-0.9-0.4-1.1-1.8-0.7-6.2l0.4-5.7-5.2 1.8c-7.6 2.7-18.8 3.2-25.5 1.2-20.7-5.9-32.1-21.3-28.2-38 2.9-12.3 10-22 19.4-26.4 4.6-2.2 6.1-2.4 15.7-2.3 8.8 0 12.6 0.6 22.2 3 14.6 3.6 20.4 3.8 23.5 0.6 3.7-3.6 3.1-8.2-1.3-12.5-4.4-4-12.4-7.2-18.3-7.2-3.9 0-4.7 0.4-8.7 4.6l-4.5 4.6-13.1-5.2c-7.2-2.7-13.3-5.2-13.4-5.4-0.9-0.8 5-9.9 9-14 5.1-5.3 10.4-8.3 17.5-9.9 15.9-3.6 40.9 5 56 19.2zm-66 46.2c-4.5 2.2-6.8 5.7-7.3 11-0.5 5.5 1.3 8.6 6.6 11.3 4.5 2.3 13.5 3.1 18.8 1.7 5-1.3 10.7-7.6 14.2-15.9l2.6-6.1h-2.5c-1.4 0-7.3-0.8-13.1-1.8-13.1-2.2-15.4-2.3-19.3-0.2zm314.1-61c10.7 1.9 18 7.5 23.1 17.4 2.3 4.5 26.2 76.5 26.2 78.9 0 1.2-28.2 10.3-29 9.5-0.4-0.3-5.4-15.3-11.3-33.3-5.8-18.1-11.4-34.3-12.4-36.1-2.1-4.3-6.7-8.2-9.8-8.3-7.7-0.4-13.5 1.4-18.2 5.7-8.9 8.2-8.4 13.7 4.5 53.5 5.4 16.7 9.8 30.5 9.8 30.8 0 0.5-28.5 9.4-28.9 8.8-0.2-0.1-7.8-23.6-17-52l-16.8-51.7 13.1-4.4c7.2-2.4 13.6-4.3 14.3-4.3 0.6 0 1.9 2.5 2.7 5.5 0.9 3 2 5.5 2.2 5.5 0.3 0 1.4-2.2 2.5-4.8 4.5-10.7 15.8-18.2 31.2-20.7 6.6-1.1 7.8-1.1 13.8 0z"/>
	</g>
</svg>