<svg version="1.2" xmlns="http://www.w3.org/2000/svg" viewBox="0 0 1467 792" width="1467" height="792">
	<title>Eicher_Logo-svg</title>
	<style>
		.s0 { fill: #ee2840 } 
	</style>
	<g id="layer1">
		<g id="g18">
			<g id="g66">
				<g id="Clip-Path: g68" clip-path="url(#cp1)">
					<g id="g68">
						<g id="g78">
							<path id="path80" class="s0" d="m1299.9 95.6c0-10.6-8.6-19.1-19.1-19.1l-539.9 0.1c-10.4 0-19 8.5-19 19 0 10.8 8.6 19.1 19 19.1l539.9-0.1c10.5 0 19.1-8.2 19.1-19z"/>
						</g>
						<g id="g82">
							<path id="path84" class="s0" d="m1427.1 246.8c0-10.8-8.5-19.2-19.1-19.2h-442.1c-10.4 0-18.8 8.6-18.8 19.2 0 10.5 8.4 19.2 18.8 19.2l442.1-0.2c10.6 0 19.1-8.5 19.1-19z"/>
						</g>
						<g id="g86">
							<path id="path88" class="s0" d="m1454.5 322.1c0-10.3-8.5-19-19-19h-387.9c-10.3 0-19 8.7-19 19.3 0 10.7 8.7 19.1 19 19.1h387.9c10.5 0 19-8.6 19-19.4z"/>
						</g>
						<g id="g90">
							<path id="path92" class="s0" d="m1466 397.9c0-10.6-8.5-19.1-19-19.1h-328.2c-10.6 0-19.3 8.5-19.3 19.1 0 10.6 8.7 19.2 19.3 19.2h328.2c10.5 0 19-8.7 19-19.2z"/>
						</g>
						<g id="g94">
							<path id="path96" class="s0" d="m1444.3 454.2h-260.1c-10.5 0-19.1 8.9-19.1 19.3 0 10.7 8.6 19.2 19.1 19.2l260.1-0.2c10.5 0 19-8.3 19-19 0-10.7-8.5-19.3-19-19.3z"/>
						</g>
						<g id="g98">
							<path id="path100" class="s0" d="m1422.2 529.7l-177.6 0.1c-10.4 0-19 8.7-19 19.2 0 10.7 8.6 19.1 19 19.1h177.6c10.5 0 19.1-8.6 19.1-19.1 0-10.5-8.6-19.3-19.1-19.3z"/>
						</g>
						<g id="g102">
							<path id="path104" class="s0" d="m1379.1 171.1c0-10.5-8.5-19-19-19h-489c-10.5 0-19.3 8.5-19.3 19 0 10.7 8.8 19.3 19.3 19.3l489-0.1c10.5 0 19-8.6 19-19.2z"/>
						</g>
						<g id="g106">
							<path id="path108" class="s0" d="m520 391.2c-6.4-0.3-14.2 4.3-18.5 13.5-6.2 12.9-21 28.4-47 34.5-33.7 7.8-68.1-0.8-95.1 8.8-25.2 9.1-78.6 30.4-82.6 32.9-3.4 2.2-5.8 6.8-6.9 9.6 0 0-3.1 15-24.2 15-2.4 0-22.3 0.9-32.4 1.1-20.7 1.4-17.1-10.9-15.4-12.9 0.9-1 38.8-27.6 38.8-27.6 3.4-2.4 4.5-9.4 1.1-14.7-3.7-5.3-10.9-6.5-16-2.9 0 0-57.4 41-59.1 41.9-4.7 2.3-7.6-2.4-7.6-2.4-9.3-10.8-8.2-31-14-52.7-6-24.3 10.2-44.4 21.8-52.9l151.3-130.4c-1.5-14 3.8-25.2 20.4-36.7 1.4-1.1 238.3-178.6 241.8-181.7 32.6-25.7 33.7 2 28.5 9.8-3.4 4.8-1.8 14.4 6.2 17.6 4.4 1.8 11.1 1 27-6 19.5-8.1 66.1-15.7 85.8-15.7h373.5c10.7 0 19.2-8.7 19.2-19.2 0-10.7-8.5-19.2-19.2-19.2l-677.9-0.2c-231.8 0-419.5 160.1-419.5 392.7 0 232.8 187.9 397.7 398.7 397.7l305.9 0.1c9.2 0 16.8-7.6 16.8-16.7 0-6.2-6.6-12.1-9.9-15.6-123.6-105.3-137.8-364.4-191.5-367.7z"/>
						</g>
						<g id="g110">
						</g>
					</g>
				</g>
			</g>
		</g>
	</g>
</svg>