<svg version="1.2" xmlns="http://www.w3.org/2000/svg" viewBox="0 0 1491 1546" width="1491" height="1546"><style>.a{fill:#0f0e9a}</style><path fill-rule="evenodd" class="a" d="m1471.5 364.6c16.7 5.8 14.9 30.5 14.9 62.1 0 55.1-5.7 125-20.7 126.3-22.4 1.7-105-71.8-112.5-126.3 22.4 2.3 91.8-8.7 118.3-62.1zm-151.7 15c0-6.9 5.8-20.1 24.7-20.1 52.4 0 100.5-35.1 100.5-66.7 0-9.1-1.7-13.1-5.7-18.3 23.5 2.8 32.7 18.9 32.7 38.5 0 41.9-54.6 89.5-114.3 89.5-22.3 0-37.9-6.8-37.9-22.9zm25.3-42c-8 0-19.5 0-25.9-12.6-5.1-10.3-3.4-27-13.2-34.5 9.8 2.9 20.1 2.9 28.2 2.9 25.9 0 50.6-17.8 69.6-17.8 12.5 0 16.5 8.1 16.5 16.1 0 25.3-51 45.9-75.2 45.9zm-1284.8 450.3c19.5 0 15.5-119.5 47.1-119.5 7.5 0 9.8 7.5 9.8 16.7 0 27-13.3 66.6-13.3 88.4 0 10.9 2.9 14.4 8.1 14.4 13.8 0 37.9-131.5 61.5-131.5 7.4 0 10.8 7.4 10.8 14.9 0 27.6-35 106.8-35 129.2 0 3.4 1.2 6.3 4 6.3 14.4 0 43.1-62 52.3-93 5.2-16.1 12.1-24.7 18.4-24.7 5.7 0 10.9 6.3 10.9 19.5 0 31-28.7 104-54 152.8-19.5 37.9-49.9 92.4-49.9 122.9 0 15.5 2.8 31.5 25.2 51.1-36.7-2.3-51.7-5.7-65.4-34.5-61.5 122.3 113.1 110.3 53.4 218.8-11-19.5-97.1-39.6-97.1-153.3 0-98.2 86.1-155.6 86.1-196.4 0-8-2.8-14.9-10.3-21.3-19-16.1-19.5-29.2-34.4-29.2-11 0-24.2 25.2-10.4 47.6 4.6 7.5 8.6 12.1 8.6 19 0 16-25.3 59.1-43.1 59.1-17.8 0-31.5-44.2-31.5-115.4 0-63.2 14.3-126.9 32.1-126.9 5.2 0 6.9 3.4 6.9 8 0 7.5-2.3 22.4-2.3 47.6 0 27.1 6.3 29.4 11.5 29.4zm115.4 134.9c0-2.8 1.8-13.2 5.2-13.2 4.6 0 8.1 12 21.3 12 25.3 0 27-24.6 27-74 0-56.9 23.5-121.8 99.3-170.6-12.1 20.7-14.9 47.7-14.9 64.4 0 97.6 117.7 188.9 117.7 249.2 0 24.6-17.8 52.3-50.5 52.3-28.7 0-44.2-23-44.2-42 0-14.9 10.3-26.4 13.8-26.4 1.7 0 2.3 1.1 2.3 5.1 0 8.1 6.3 18.4 19.5 18.4 12 0 20.1-8.6 20.1-19.5 0-47.6-97.1-130.9-97.1-245.2-5.2 12.7-11.5 28.7-11.5 52.9 0 55.1 40.2 112.5 40.2 164.2 0 21.2-16.6 40.2-37.3 40.2-24.1 0-32.7-19-32.7-31 0-8.1 3.4-15.6 5.7-15.6 2.9 0 1.7 12.1 15 12.1 13.7 0 18.9-9.8 18.9-27.5 0-47.7-27.6-81.6-27.6-131 0-7.4 0-15.5 1.8-23-15 17.9-16.7 43.1-16.7 65.5v58.6c0 39.6-20.1 57.4-44.3 57.4-15.4 0-31-12.1-31-33.3zm901.2-613.3c7.3-4.9 39.7 2.9 81.6-17.8 5.1-2.9 10.3-4 14.9-4 20.1 0 14.9 22.9 33.4 22.9 14.3 0 32.7-12 43.6-12 17.2 0 41.9 54 41.9 79.2 0 29.3-44.2 47.1-96.5 47.1-76.3 0-122.3-66.6-122.3-109.6 0-3.5 1.7-4.7 3.4-5.8zm125.2 72.9c25.3 0 44.3-11.5 44.3-18.4 0-2.2-3.4-4-10.9-4-7.5 0-22.4-0.5-50.6-5.1-24.2-4.1-42.6-13.2-49.5-13.2-2.3 0-3.4 1.1-3.4 2.8 0 15 27.6 37.9 70.1 37.9zm-866.7 956.8c46 0 68.4-23.6 68.4-64.3 0-45.4-30.5-90.8-81.6-90.8-25.8 0-43.6 15-43.6 35.6 0 34.5 28.1 56.3 57.4 56.3 19.5 0 32.2-8 32.2-21.2 0-2.3-0.6-5.2-1.8-6.9-2.3 1.1-6.8 2.3-12.6 2.3-23.5 0-42.5-13.8-42.5-27.6 0-10.9 7.5-17.8 17.8-17.8 34.5 0 58 35.6 58 61.5 0 26.3-18.9 49.3-51.1 49.3-68.4 0-97.1-56.8-97.1-94.8 0-40.7 33.9-68.3 71.8-68.3 69.5 0 122.9 60.9 122.9 147.6 0 39.1-20.7 97.1-104.5 97.1-99.4 0-159.7-86.7-159.7-143 0-47.1 30.5-77 49.4-81.6-20.1 83.9 24.7 166.6 116.6 166.6zm539.1 169.9c27.5 0 26.1-2.3 34.7-2.3 8.6 0 9.2 5.2 9.2 8.6 0 12.7-28.2 28.2-78.1 28.2-29.3 0-47.1-15.5-52.3-32.8-28.7 18.4-72.4 35.1-115.4 35.1-117.8 0-147.6-51.2-184.4-67.8-28.2-12.6-71.2 12.1-131.5-55.1 8 1.7 18.9 2.3 27.6 2.3 52.8 0 80.9-25.8 80.9-67.2 0-5.2-0.6-10.9-1.2-16 16.1 6.3 52.9 33.8 61.5 82.6 1.2 5.8 24.7 10.9 39.6 10.9 20.7 0 47.2-8.6 51.2-42.4 68.9-5.8 115.4-46.5 125.2-98.3 24.7 8.1 52.8 30.5 59.7 42q14.7-5.2 34.5-5.2c18.3 0 39 3.5 63.7 11 1.2-7.5 2.3-16.7 13.8-16.7 17.2 0 12.6 18.9 18.4 29.8 2.9 5.7 17.3 9.2 17.3 20.7 0 10.9-9.3 14.9-15 14.9-2.3 0-5.2-0.5-6.9-1.1-11.5 4-12 86.7-60.3 86.7-35.6 0-68.4-29.3-82.7-66-4.1-10.9-12.6-17.8-20.7-17.8-9.2 0-14.3 1.7-25.2 13.8-31.1 33.8-82.8 63.1-146.5 63.1-19.6 0-35-1.7-39.1-1.7-2.3 0-2.3 0.5-2.3 1.1 0 4 19.5 19.6 62.1 19.6 101 0 125.8-56.9 141.8-56.9 2.3 0 9.2 0 13.2 9.2 23.6 55 75 67.7 107.2 67.7zm-44.6-114.8c0 12.7 10.4 23 23 23 12.7 0 23-10.3 23-23 0-12.6-10.3-23-23-23-12.6 0-23 10.4-23 23zm392.9-251c-12 0-78.8 89-121.7 89-10.4 0-19-19.5-19-34.4 0-8 5.2-13.8 23.6-17.8 98.8-22.4 76.9-96.5 161.3-96.5 46.5 0 98.2 31.6 98.2 102.8 0 75.8-107.9 170-124 170-13.2 0-27.6-18.9-27.6-31.6 0-4 1.8-9.2 13.3-13.8 55-21.8 86.6-72.3 86.6-98.2 0-5.7-2.9-11.4-10.4-11.4-9.7 0-51.5 95.3-98.1 95.3-32.2 0-64.9-29.3-64.9-43.1 0-23 93.1-65.5 93.1-97.6 0-12.1-5.8-12.7-10.4-12.7zm62-35.6c-8.1 0-16.7 6.4-16.7 21.9 0 17.2 13.3 28.1 20.7 31.5 4 2.3 10.4 4.6 16.6 4.6 16.7 0 29.9-4.6 29.9-18.4 0-17.7-25.8-39.6-50.5-39.6zm-1049.9-687.9c12.6 0 23 10.3 23 22.9 0 12.7-10.4 23-23 23-12.6 0-23-10.3-23-23 0-12.6 10.4-22.9 23-22.9zm-29.9-51.7c12.7 0 23 10.3 23 22.9 0 12.7-10.3 23-23 23-12.6 0-22.9-10.3-22.9-23 0-12.6 10.3-22.9 22.9-22.9zm-47.6 206.7c0 17.2 5.7 34.5 21.8 50-4.6 3.4-12.1 5.7-22.4 5.7-20.1 0-36.2-13.2-36.2-33.9 0-28.7 27.6-44.8 40.8-48.2-2.3 6.9-4 14.4-4 26.4zm-78.7 6.3c6.9 0 14.3-0.6 20.6-1.7-14.9 18.9-31.6 27.6-45.9 27.6-18.9 0-33.3-15-33.3-42 0-2.8 0-5.7 0.6-8.6 13.8 19 36.7 24.7 58 24.7zm-24.1 60.9c15.5 0 32.7-3.4 55.1-8.6-29.3 25.3-54 38.5-72.4 38.5-23.5 0-36.7-20.7-36.7-64.4 17.2 26.5 33.3 34.5 54 34.5zm527.8-443.9c-31 0-96.5-31-118.9-31-6.3 0-8 1.7-8 7.5 0 21.8 42.4 90.7 42.4 121.1 0 8-2.8 14.4-10.8 14.4-25.9 0-83.3-68.9-103.4-68.9-18.4 0-10.4 58-27.6 58-13.8 0-25.8-33.4-40.8-33.4-14.9 0-24.7 114.9-48.2 114.9-27.6 0-16.7-106.2-35.1-106.2-14.3 0-33.8 36.2-55.1 36.2-11.5 0-14.9-9.2-14.9-22.4 0-16.7 5.2-39.7 5.2-54.6 0-8.1-0.6-17.2-8.1-17.2-21.3 0-98.8 56.8-128.7 56.8-6.2 0-10.9-2.8-10.9-9.2 0-28.1 98.2-112.5 98.2-132 0-17.9-112.5-1.8-112.5-19 0-19.5 79.8-53.4 79.8-66 0-13.2-76.9-17.8-76.9-32.8 0-9.8 18.3-13.7 52.2-13.7 28.1 0 101.1 7.4 101.1 24.1 0 18.9-61.5 37.9-61.5 56.3 0 21.8 86.2 9.1 86.2 28.1 0 19.5-62.6 63.2-62.6 76.9 0 2.3 2.9 3.5 5.2 3.5 14.9 0 53.9-28.7 71.7-28.7 6.9 0 9.2 4.6 9.2 12.6 0 16.1-9.7 43.1-9.7 59.7 0 4 1.1 8.6 5.7 8.6 12.6 0 32.8-54.5 50.6-54.5 16.1 0 1.7 82.1 18.3 82.1 14.4 0 17.3-74.7 32.2-74.7 14.3 0 21.3 42 36.2 42 6.3 0 6.9-8.1 6.9-21.3v-19.5c0-12.6 0.6-21.2 6.9-21.2 17.2 0 66 57.4 76.3 57.4 2.3 0 2.9-2.3 2.9-4.1 0-15.4-32.7-67.7-32.7-95.3 0-9.2 3.4-15.5 12.6-15.5 20.1 0 62.6 23.6 82.1 23.6 6.4 0 10.4-2.3 10.4-8.6 0-23.6-70.1-71.2-70.1-90.8 0-18.9 78.2-38.5 131.5-38.5 6.9 0 20.8 0 20.8 7.5 0 14.3-66.4 26.6-82.3 43.4-2.1 2.3-3.4 4.7-3.3 7.2 1 26.9 94.2 89.5 94.2 124 0 7.4-6.4 13.2-16.7 13.2zm-513.5 228c25.2-16.1 47.7-18.4 66.6-18.4 4.6 0 9.2 0.2 12.7 0.6 10.3 1.1 18.5 1.3 21.2 4 4.7 4.7 1.9 13.5 9.2 23.5 7.3 10.1 16.1 8.7 16.1 19.6 0 8.6-16.1 59.7-57.4 80.4-19.6 9.7-35.1 13.7-48.3 13.7-22.4 0-37.9-9.7-51.7-9.7-2.3 0-5.1 1.1-9.7 1.1-5.2 0-10.9-5.7-10.9-10.8 0-2.4 0.6-4.6 1.7-6.4 8-13.2 0.7-65.8 50.5-97.6zm72.9 3.4c-2.8-1.7-4.5-2.2-8.6-2.2-8.6 0-14.9 1.1-14.9 12 0 17.2 16.1 47.7 36.2 47.7 9.2 0 13.8-10.4 13.8-18.4 0-4-11-10.7-14.9-16.1-6.4-8.6-6.4-20.1-11.6-23zm-20 83.3c0-1.2-1.2-1.7-2.9-2.9-17.3-8-35.6-24.1-39.1-52.2-0.5-4.1-1.7-5.8-4-5.8-6.3 0-14.9 14.4-14.9 25.9 0 21.2 20.7 44.8 39.6 44.8 10.3 0 21.3-5.8 21.3-9.8zm151 62c0 24.7-13.2 48.8-41.3 48.8-29.3 0-48.3-25.8-48.3-56.8 0-25.9 13.2-51.1 25.9-66.1 28.7 8.6 63.7 35.7 63.7 74.1zm-186.6-184.3c0 0-16.7 12.6-37.4 12.6-24.7 0-44.2-18.4-44.2-44.2 0-17.8 9.2-36.2 30.4-45.4-0.5 3.5-0.5 6.3-0.5 9.8 0 32.7 18.3 57.4 51.7 67.2zm1036.6 166.5c13.2 0 24.1 10.9 24.1 24.1 0 13.2-10.9 24.2-24.1 24.2-13.1 0-24-11-24-24.2 0-13.2 10.9-24.1 24-24.1zm4.6 69.5c15 0 27 12 27 27 0 14.9-12 27-27 27-14.8 0-26.9-12.1-26.9-27 0-15 12.1-27 26.9-27zm-70 36.2c21.8 0 39.7 17.8 39.7 39.6 0 21.8-17.9 39.6-39.7 39.6-21.9 0-39.6-17.8-39.6-39.6 0-21.8 17.7-39.6 39.6-39.6zm4.6-64.3c12.7 0 23 10.3 23 22.9 0 12.7-10.3 23-23 23-12.7 0-23-10.3-23-23 0-12.6 10.3-22.9 23-22.9zm-75.3 45.9c12.6 0 23 10.3 23 23 0 12.6-10.4 22.9-23 22.9-12.5 0-22.9-10.3-22.9-22.9 0-12.7 10.4-23 22.9-23zm73-148.2c20.1 0 36.8 16.7 36.8 36.8 0 20.1-16.7 36.7-36.8 36.7-20.1 0-36.8-16.6-36.8-36.7 0-20.1 16.7-36.8 36.8-36.8zm28.2-55.7c12.1 0 21.8 9.8 21.8 21.9 0 12-9.7 21.8-21.8 21.8-12.1 0-21.9-9.8-21.9-21.8 0-12.1 9.8-21.9 21.9-21.9zm-104.1 55.2c12.1 0 21.9 9.7 21.9 21.8 0 12.1-9.8 21.8-21.9 21.8-12 0-21.7-9.7-21.7-21.8 0-12.1 9.7-21.8 21.7-21.8zm10.3 61.4c19.6 0 35.1 15.5 35.1 35 0 19.6-15.5 35.1-35.1 35.1-19.4 0-34.9-15.5-34.9-35.1 0-19.5 15.5-35 34.9-35zm-74.6 39.1c17.8 0 32.8 14.9 32.8 32.7 0 17.8-15 32.7-32.8 32.7-17.8 0-32.7-14.9-32.7-32.7 0-17.8 14.9-32.7 32.7-32.7zm9.8-71.2c12.7 0 23 10.3 23 22.9 0 12.6-10.3 23-23 23-12.6 0-23-10.4-23-23 0-12.6 10.4-22.9 23-22.9zm178.7 199.8c0-11.5 10.3-21.3 21.7-21.3 12.7 0 22.4 9.8 22.4 21.3 0 13.2-9.7 22.4-22.4 22.4-11.4 0-21.7-9.2-21.7-22.4zm80.9 653.5c0 54.5-80.3 121.7-187.9 121.7-33.2 0-51-22.9-51-45.9 0-32.7 17.8-62.5 31.5-78.6 6.3-7.5 12.6-13.3 18.4-13.3 4.6 0 18.4 9.8 49.4 9.8 58.1 0 93-25.8 108-37.3 13.2 0 31.6 12.6 31.6 43.6zm-123.5-31c-31 0-56.3-10.9-56.3-21.8v-26.4c0-8.1 22.4-27 64.4-27 34.5 0 59.7 9.7 59.7 26.4v13.2c0 6.3-1.1 12.7-5.8 16.7-14.8 12.6-37.2 18.9-62 18.9zm-10.9 55.7h-7.4c0.5 5.2 1.1 8.6 1.1 13.3 0 13.7-3.5 28-8.1 41.8 28.8-0.5 48.3-8.6 62.7-18.3 20.6-13.3 26.3-29.9 26.3-42.5 0-10.4-3.4-12.1-6.3-12.1-3.3 0-22.9 17.8-68.3 17.8zm122.9-551.3c0 14.4 4.6 31 19 31 12 0 22.4-18.3 22.4-38.4 0-23-4-40.8-4-50 0-4 1.7-5.7 4-5.7 8.6 0.5 16.7 24.1 25.9 24.1 10.3 0 25.7-19 32-19 1.8 0 2.3 2.3 2.3 2.9 0 8.6-13.2 27.6-13.2 35 0 6.3 33.4 7.5 33.4 13.2 0 8.6-35 8.6-51.6 16.1-16.1 6.9-25.9 15.5-25.9 27 0 11.5 11.5 13.8 27.6 13.8 38.4 0 65.4-20.7 74-20.7 1.7 0 2.8 1.2 2.8 2.9 0 5.7-19.5 24.7-19.5 33.3 0 9.7 35.6 21.2 35.1 26.9-0.6 1.8-2.9 2.3-6.9 2.3-6.4 0-16.1-1.7-23.6-1.7-4.6 0-8.6 0.6-10.4 2.9-3.9 4.6 1.2 35-6.8 35-7.5 0-27-67.7-71.2-67.7-6.3 0-10.9 5.1-10.9 13.8 0 22.9 22.4 49.3 43.7 62 9.6 6.3 25.8 12.6 25.8 16.1 0 6.8-36.7 0.5-36.7 12 0 10.4 4.6 25.9 4.6 35 0 2.9-0.6 6.4-4.1 6.4-6.8 0-23.5-31.6-31.6-31.6-6.9 0-21.8 18.9-28.2 18.9-1.7 0-2.8-1.7-2.8-3.4 0-13.2 21.3-43.1 21.3-72.4 0-13.7-1.8-43.6-18.5-43.6-13.7 0-29.3 21.8-36.2 43.6-4 12.6-1.1 61.5-10.3 61.5-8.6 0-6.3-32.8-17.8-32.8-8.5 0-26.9 15.5-33.2 15.5-1.2 0-2.3-0.6-2.3-1.7 0-6.9 16.6-29.3 16.6-33.9 0-8.6-37.9-9.7-37.9-16.6 0-4 14.9-6.9 28.7-9.2 29.2-5.2 72.4-26.4 72.4-56.2 0-33.4-32.3-47.7-53.4-61.5-10.9-6.9-23-12.6-23-17.2 0-4.6 13.8-4.6 19.6-4.6 8.6 0 17.1-0.6 17.1-7.5 0-5.2-1.2-15.5-1.2-23.5 0-5.8 0.6-10.4 2.9-10.4 8.6 0 20.7 28.1 26.4 28.1 9.2 0 21.9-22.9 30.5-22.9 2.9 0 4 1.7 4 6.9 0 21.2-10.9 45.3-10.9 66zm-274-168.2c6.4 48.8 71.9 24.1 71.9 83.2 0 8.6-2.3 21.3-2.3 32.2 0 12.6 1.2 23.5 10.8 23.5 9.8 0 12.1-6.9 12.1-16.1 0-9.2-2.3-20.6-2.3-26.9 0-20.2 14.3-24.7 23-24.7 21.8 0 38.5 22.4 71.3 22.4-7.5 36.7-83.4 26.9-83.4 67.2 0 20.1 20.1 24.6 33.3 24.6 12.1 0 16.2-1.7 16.2-12 0-5.8-1.2-12.1-1.2-16.1 0-2.3 1.7-4.6 4.6-4.6 12.7 0 74.6 47.1 74.6 61.5 0 13.1-65.4 26.4-84.4 26.4-5.7 0-6.9-4.1-6.9-6.3 0-4.1 9.8-16.1 9.8-23 0-5.2-8.6-8.6-31.6-8.6-10.9 0-19 1.1-19 9.8 0 15.4 25.3 34.4 25.3 48.7 0 11.5-6.9 18.4-25.3 18.4-15.5 0-39-12.1-39-32.1 0-16.1 16.6-32.2 16.6-41.9 0-2.9-2.2-7.5-9.1-7.5-21.3 0-27 56.2-102.3 62.5 12.1-10.8 22.4-22.9 22.4-47.6 0-12-2.8-21.8-2.8-35 0-17.2 8-25.9 19.5-25.9 21.2 0 31.5 29.9 45.4 29.9 7.5 0 15.5-6.9 15.5-17.2 0-43.7-83.9-37.4-83.9-98.8 0-16.7 5.7-37.3 21.3-66zm79.2 296.8c60.3 11.5 93.1 56.9 93.1 99.4 0 29.3-18.4 56.2-50.6 56.2-29.3 0-50.5-20-50.5-52.2 0-24.1 18.9-49.4 18.9-74.1 0-9.7-2.9-19.5-10.9-29.3zm-62.6 30.5c26.5 3.4 32.8 12.6 32.8 20.1 0 12.6-11.5 16.6-22.5 16.6-8 0-17.2-1.7-26.9-1.7-12.7 0-25.3 2.9-35.7 14.9 7.5 1.2 18.4 6.3 18.4 17.9 0 33.3-92.5 5.7-92.5 91.3 0 45.3 47.1 94.7 118.4 94.7 36.8 0 60.3-12 60.3-25.8 0-10.9-19.5-3.5-19.5-12.7 0-4 6.9-11.5 6.9-17.8 0-2.8-2.3-8-6.9-8-10.4 0-29.9 16.6-69.6 16.6-31 0-61.4-17.7-61.4-41.9 0-5.1 2.3-8 5.7-8 3.5 0 8.1 2.3 12.1 2.3 3.5 0 4-2.3 4-8.7 0-6.3 0-24.1 10.9-24.1 10.9 0 31.6 40.2 111 40.2 26.3 0 77.4-5.1 96.4-22.4-0.6 63.2-50 146.5-153.4 146.5-107.4 0-164.8-86.2-164.8-165.4 0-87.9 71.8-167.7 170-167.7 25.2 0 46.5 8.6 46.5 19.5 0 15-37.3 5.8-40.2 23.6zm42 110.3c0 14.8-10.9 27.5-27.1 27.5-14.9 0-25.2-12.1-25.2-25.8 0-9.8 4-19 4-27.6 0-5.8-1.7-11.5-7.5-17.2 33.3 0 55.8 21.2 55.8 43.1zm205-20.7c0 22.4-16.1 41.3-39.7 41.3-21.7 0-36.1-15.5-36.1-34.4 0-16.7 10.9-31.6 10.9-47.7 0-5.8-1.7-12.1-5.7-18.4 43 2.9 70.6 28.7 70.6 59.2zm-154.6-43.7c0 8.1 5.8 14.4 13.9 14.4 9.1 0 14.9-8.1 14.9-17.3 0-12-10.9-28.7-21.3-28.7-4.6 0-2.8 6.9-4 14.4-0.6 5.7-3.5 12.6-3.5 17.2zm-464-701.7c37.9 0 55.1 32.7 55.1 69.5 0 16-4.5 39.6-12 39.6-7.5 0-6.3-13.2-7.5-25.3-1.1-15.5-4-18.9-9.2-18.9-9.8 0-16 22.9-16 44.2 0 13.2 2.3 28.1 12.6 28.1 5.7 0 10.9-2.9 14.3-6.3-2.3 26.4-21.8 49.4-49.4 49.4-50.5 0-69.5-59.2-75.2-93.6-30.5 32.1-58.6 55.7-109.1 55.7-47.1 0-68.4-34.4-68.4-67.2 0-9.8 3.5-35 15.5-35 14.4 0 1.8 47.1 29.9 47.1 6.9 0 19.5-5.8 26.4-24.7 4-11.5 6.4-23.6 6.4-33.9 0-15.5-3.5-25.3-15-25.3-9.7 0-21.8 7.5-25.8 11.5 13.8-41.4 47.1-62.6 83.8-62.6 45.4 0 69.5 40.2 69.5 85 0 6.3-0.6 13.2-1.7 19.5 19.5-32.2 46.5-56.8 75.8-56.8zm-44.2 67.7c0-9.7-2.3-12-4.6-12-5.8 0-12.1 6.9-21.3 22.4 1.2 20.7 4.6 29.9 10.4 29.9 6.3 0 15.5-20.2 15.5-40.3zm-78.7 23.6c6.3 0 14.3-6.9 29.3-23.6 1.2-7.4 1.2-14.3 1.2-22.9 0-11.5-4.7-24.2-11.5-24.2-17.3 0-25.9 46-25.9 58.1 0 6.8 3.4 12.6 6.9 12.6zm93.6 51.1c14.4 0 30.4-55.1 30.4-89.6 0-7.5-1.1-15.5-4.5-15.5-12.1 0-32.2 56.8-32.2 87.9 0 12 2.9 17.2 6.3 17.2zm-140.7-31.6c19.6 0 41.9-105.6 41.9-123.5 0-4.6-1.7-8-5.7-8-17.8 0-42.5 100.5-42.5 122.9 0 4 1.2 8.6 6.3 8.6zm109.1 93.6c-2.8-0.5-5.7-1.1-8.6-1.1-18.4 0-28.7 18.3-43.7 49.4 33.4-22.5 64.4-40.8 99.4-40.8 29.9 0 53.4 18.3 53.4 46.5 0 12-5.7 25.3-13.2 36.7-4.6-25.8-25.8-37.3-62.6-37.3-21.2 0-46.5 4-66.6 11.5 64.9 9.2 74.7 32.7 74.7 54 0 36.2-36.2 54-60.4 66 2.3-10.3 4.1-21.3 4.1-32.7 0-21.9-8-46.5-40.8-70.6-5.2 23.5-23.6 37.9-23.6 56.2 0 6.9 4.6 9.2 8.1 9.2 0 10.4-4.6 39.6-4.6 47.1 0 15.5 3.4 18.4 10.9 20.1 4.6 13.2 4.8 35.4 7.9 47.3 1.8 6.7 7 8.4 11 8.4 4.6 11.5 10.4 28.7 21.3 36.8 2.3 1.7 5.2 5.7 5.2 9.2 0 10.3-15.5 21.8-25.3 21.8-2.9 0-7.8-1.8-12.3-12.4-3.6-8.7-31.3-26.1-33.1-36.4 1.8-1.7 2.9-5.2 2.9-9.2 0-16.1-25.3-34.5-25.3-59.7 2.9-1.2 5.8-5.8 5.8-10.9 0-14.4-15-42.6-15-61.5 6.4 0 9.8-0.6 10.4-9.8 1.1-18.9 5.2-47.1 23-63.2-4-0.5-9.2-1.1-16.1-1.1-34.5 0-87.9 20.1-108 64.9q-1.7-10.3-1.7-18.9c0-37.4 22.4-62.1 39.1-69.5 8.5-4 18.9-5.2 30.4-5.2 18.3 0 40.2 4 62.6 8-19.5-25.8-49.4-44.7-74.1-44.7-11.5 0-20.7 4-23.6 13.7-1.1-5.1-1.7-13.7-1.7-19.5 0-28.1 9.2-44.2 33.3-44.2 35.6 0 66.1 42.5 84.5 82.1 0-60.3 1.1-90.2 25.8-90.2 13.8 0 39.6 24.8 46.5 50zm921.2 364.1c28.8 0 51.7 37.3 51.7 81 0 46.4-21.8 97-60.7 131.4-0.6-77.5-95.5-52.8-95.5-109.1 0-24.1 17.2-40.2 37.9-40.2 17.9 0 31.9 4.9 42.1 14.6-9.6-9.7-14.5-23-14.5-35.8 0-21.8 13.8-41.9 39-41.9zm-24.5 77.7q0.5 0.5 1.1 1-0.5-0.5-1.1-1zm-401.6-665.2c-4.6-7.5-21.8-11.4-29.8-11.4-25.3 0-42.6 17.7-46 33.8-2.3-5.7-4-12.6-4-19.5 0-25.3 17.2-56.3 59.2-56.3 36.7 0 51 19.5 56.2 19.5 5.7 0 11.5-5.7 16.1-5.7 6.3 0 6.3 9.8 6.3 16.7 0 22.9-10.3 62.5-36.2 76.9-4.6-9.8-13.8-20.7-28.6-27.5-4.1-1.8-5.8-5.2-5.8-8.7 0-6.3 5.8-14.3 12.6-17.8zm-86.7 41.9c14.9 14.4 28.1 20.7 44.2 20.7 6.4 0 13.8-1.7 17.9-1.7 5.1 0 8.6 2.3 8.6 6.3 0 6.3-5.8 16.7-12.7 22.4 6.9 2.9 14.4 4 22.5 4 32.6 0 70-20.7 70-72.3 6.9 9.1 10.9 28.1 10.9 36.7 0 62.6-46 86.7-88.4 86.7-27.6 0-41.4-9.2-44.9-9.2-10.9 0-10.3 21.9-17.8 21.3-13.2-2.3-25.2-31.6-25.2-62.6 0-18.4 4.5-37.9 14.9-52.3zm-831.7-63.7c0-21.3 16.1-39.1 38.5-39.1 39 0 51.7 42 51.7 69.5 0 12.7-2.3 24.1-5.2 33.3-39.6 0-85-18.3-85-63.7zm518.1-255c15 0 22.4 0.6 22.4 17.8 0 13.8-2.9 27-12.6 27-16.7 0-52.9-22.4-52.9-32.7 0-6.9 24.2-12.1 43.1-12.1zm-206.2-20.6c0 17.8 51.1 32.7 51.1 46.5 0 4-3.4 5.1-6.9 5.1-9.7 0-27.5-8-40.7-8-9.2 0-16.1 4.6-16.1 14.3 0 16.1 17.2 40.8 17.2 52.9 0 4-2.9 6.9-6.3 6.9-13.8 0-28.7-44.2-48.9-44.2-24.6 0-17.2 63.7-34.4 63.7-16.7 0 3.4-64.9-27-64.9-18.4 0-37.9 29.3-49.4 29.3-2.9 0-5.7-1.1-5.7-4.6 0-11.5 31-37.3 31-51.7 0-7.5-7.5-9.2-15.5-9.2-14.4 0-34.5 5.8-47.1 5.8-5.8 0-10.4-1.8-10.4-5.8 0-12 58-17.8 58-37.9 0-18.9-26.9-16.1-26.9-23 0-5.1 21.2-9.2 44.2-9.2 37.9 0 30.4 32.2 60.3 32.2 28.7 0 23.5-31 60.9-31 23.5 0 40.7 3.5 40.7 6.9 0 8-28.1 8-28.1 25.9zm-301.6 113.1c0 11.5-43.6 49.9-59.1 49.9-5.7 0-7.4-6.9-7.4-13.2 0-11.4 5.1-27.5 11.4-32.7 7.5-6.9 24.7-10.3 37.9-10.3 8 0 17.2 1.7 17.2 6.3zm425.1 55.7c16.1 0 89 57.4 99.4 71.8 2.2 3.4 3.4 8 3.4 12.6 0 17.2-8.6 37.3-20.1 37.3-13.8 0-85.6-98.2-85.6-118.3 0-1.7 1.1-3.4 2.9-3.4zm825.9-43.7c0-40.7-97.6-51.1-97.6-60.3 0-7.4 54.5-20.1 82.6-20.6-43-55.1-104.4-49.4-104.4-59.2 0-5.7 45.9-17.2 88.4-17.2 35.6 0 68.9 8 68.9 35 0 15-12.1 30.5-12.1 53.4 0 12.7 6.3 23.6 23 23.6 17.9 0 21.9-19 21.9-39.1 0-16.6-2.9-29.3-2.9-37.3 0-24.1 16.6-40.2 40.1-40.2 19.6 0 24.2 8.6 52.9 8.6-15.5 9.2-21.2 25.9-21.2 33.9 0 24.1 15.5 40.8 15.5 90.2 0 90.7-85 122.8-189 122.8-28.6 0-59.1-2.3-89-6.8-4.6-0.6-5.7-1.8-5.7-4.6 0-7.5 40.8-11.5 40.8-48.3 0-14.3-4.6-28.1-4.6-33.3 0-2.8 2.3-4.6 4.6-4.6 8.6 0 25.9 33.3 57.9 33.3 8.6 0 29.9-2.9 29.9-29.3zm93.6-126.9c0 8.1 6.3 14.4 14.3 14.4 8.1 0 14.4-6.3 14.4-14.4 0-8-6.3-14.3-14.4-14.3-8 0-14.3 6.3-14.3 14.3zm3.4 69c0 51-37.2 90.1-104.5 101 7.5 0.6 14.4 0.6 21.3 0.6 78.6 0 107.3-35.6 107.3-65.5 0-16.6-9.1-31.6-24.1-36.1zm-39.5 740.2c9.2-28.8 20.7-48.9 39.5-79.9-18.8-9.7-68.8-30.4-68.8-64.3 0-39.6 49.4-70.6 59.6-70.6 4.6 0 5.8 4 5.8 11.5 0 20.6-9.8 54-9.8 71.7 0 16.1 10.3 31.7 19.5 31.7 9.8 0 36.8-34.5 36.8-68.4 0-60.9-53.5-79.3-70-79.3-15.5 0-43.7 25.3-109.8 25.3-123.4 0-151.6-122.3-151.6-175.7 0-2.3 0.6-2.9 1.1-2.9 2.9 0 15 15 54.1 15 20.1 0 38.5-5.2 67.8-5.2 68.9 0 99.3 47.7 141.9 108.5 25.7 16.1 87.2 41.9 87.2 114.9 0 64.3-68.4 99.9-85 168.8 26.4-2.8 41.9-50 68.9-50 13.8 0 20.1 11 20.1 28.2 0 25.2-14.3 63.2-41.9 86.7 0.5-2.3 0.5-5.2 0.5-8.6 0-16.1-6.3-39-24.7-39-28.6 0-37.8 31-53.9 56.8-16.6-58.5-39.1-111.4-79.2-143.6-40.8-32.7-110.9-14.9-110.9-74.6 0-16.1 10.4-39.1 10.4-57.5 0-6.3-1.2-12-4.7-16.6 55.2 20.7 35.7 57.4 69.6 95.3 21.1 24.1 79.7 47.1 113.7 146.5 0.5-2.9 1.1-10.4 1.1-15.5 0-85-112.5-168.3-122.3-202.8 65.4 7.5 76.9 23.6 107.9 109.7 6.4 17.8 27.1 62.1 27.1 83.9zm-15-278.6c0-12-30.5-13.1-33.3-47-0.6-5.2-2.3-14.4-8.6-14.4-10.4 0-2.4 31.6-13.9 31.6-26.4 0-35-51.7-44.8-51.7-2.3 0-5 1.7-5 8.6 0 6.3 1.2 10.4 1.2 17.8 0 7.5-1.8 12.6-8.7 12.6-15.5 0-29.3-36.1-42.5-36.1-2.9 0-5.8 1.7-5.8 4.6 0 6.9 11.5 19.5 11.5 25.8 0 13.8-37.3 6.3-37.3 17.8 0 5.2 5.1 6.9 12 6.9 12.1 0 31.1-5.1 40.9-5.1 5.7 0 14.3 1.1 14.3 8.6 0 8-20.7 18.3-20.7 25.8 0 3.4 3.5 5.1 6.4 5.1 15.5 0 42.9-26.9 62.5-26.9 3.4 0 12 1.7 12 6.9 0 7.4-19.5 20.6-19.5 31.5 0 2.9 1.8 6.3 5.2 6.3 10.3 0 24.1-26.9 43.6-26.9 7.5 0 18.4 2.9 24.2 2.9 4.6 0 6.3-2.9 6.3-4.7zm-479.6-306.6c-2.3 0-2.8 0-2.8-2.9 0-11.5 28.7-51.7 28.7-63.7 0-12.1-39.1-5.2-39.1-14.9 0-12.1 39.1-24.7 39.1-40.8 0-16.1-37.4-18.4-37.4-31 0-6.9 35.1-16.7 35.1-27 0-10.4-35.6-50.6-35.6-63.8 0-14.3 53.4 25.3 67.2 25.3 6.9 0 6.9-20.1 6.9-26.4 0-9.8 2.9-15.5 5.7-15.5 6.9 0 20.7 22.9 29.8 22.4 14.9 0 43.1-19 81.6-19 81 0 139.6 48.8 139.6 132.1 0 86.1-65.5 134.9-135 134.9-48.8 0-78.2-30.4-89.1-30.4-7.3 0-18.2 26.4-25.1 26.4-2.9 0-4.1-0.5-5.2-7.5-1.7-13.1-3.5-35.6-12.7-35.6-8 0-40.8 37.4-51.7 37.4zm45.4-106.8c0 1.1 1.1 1.7 4 1.7 4.1 0 17.3 0.6 24.2 0.6 2.9 0 4 2.3 4 4.6l1.2 22.9c0 2.9 1.1 5.2 2.8 5.2 5.2 0 15.4-23.5 21.8-23.5 5.1 0 23 8 27.6 8 1.1 0 1.7-0.6 1.7-1.7 0-5.2-12.1-21.3-12.1-25.3 0-5.1 32.8-4.6 32.8-10.3 0-4.6-32.2-10.9-32.2-16.1 0-4.6 14.3-20.1 14.3-24.1 0-1.2-1.1-1.7-2.3-1.7-5.7 0-19.5 8.6-26.9 8.6-6.4 0-13.3-30.4-17.3-30.4-5.6 0-6.8 32.1-14.3 32.1-8.6 0-19.5-2.3-25.9-2.3-1.7 0-2.8 0.6-2.8 1.7 0 6.9 22.4 19 22.4 25.3 0 4-23 20.1-23 24.7zm224-19c0-65.4-33.9-104.5-90.7-104.5-35.1 0-57.5 14.3-57.5 27.6 0 8 6.9 9.2 12.6 9.2 11.5 0 39.1-10.9 44.3-10.9 4 0 6.3 1.1 6.3 4 0 6.3-12.1 20.1-12.1 28.1 0 10.9 63.2 2.9 63.2 14.4 0 10.9-46.5 21.2-46.5 28.1 0 7.5 37.4 32.2 37.4 44.8 0 2.3-1.2 4.6-5.2 4.6-12 0-35.1-6.3-50.6-6.3-3.4 0-5.2 1.7-5.2 4 0 8.6 9.8 25.8 9.8 36.2 0 3.4-1.7 4.6-4 4.6-9.2 0-36.8-19.5-49.4-19.5-4.6 0-8.1 3.4-8.1 8.6 0 10.3 26.5 30.4 66.7 30.4 31 0 89-20.7 89-103.4zm-484.2 1070.5c0-9.8 6.3-16.1 15-16.1 10.9 0 16.6 9.8 17.8 20.1 4-4 7.4-5.7 12.6-5.7 11.5 0 18.4 9.1 18.4 18.9 0 6.3-3.5 12.1-8.1 15.5 6.9 3.5 10.9 8.6 10.9 16.1 0 9.2-6.8 16.1-16 16.1-8.7 0-13.8-10.4-23-10.4-5.2 0-10.9 2.3-13.2 5.8 3.4 8 5.2 16 5.2 23.5 0 44.8-56.9 81-116.1 81-59.1 0-80.4-36.7-80.4-51.7 0-3.5 2.3-5.2 6.3-5.2 9.8 0 12.1 3.5 38.5 3.5 63.2 0 40.8-85.6 99.9-85.6 8.1 0 25.9 5.7 32.2 17.2 4.6-5.7 6.3-11.5 6.3-16.6 0-9.8-6.3-17.3-6.3-26.4zm-350.3-106.3c0-16.1 22.4-27 42.5-27 28.1 0 48.8 8.1 67.7 36.8 17.3 25.8 20.1 68.9 29.3 77 4.6 4 12.1 5.1 17.3 5.1 5.7 0 10.9-0.6 14.9-0.6 41.3 0 69.5 46.6 69.5 67.2 0 19-16.7 25.8-37.3 25.8-24.8 0-52.9-14.3-67.3-30.4-10.9-11.5-16.6-34.5-21.2-62.6-4.6-29.3-27.6-54-73.5-65.4-36.8-9.2-41.9-16.1-41.9-25.9zm213.6 145.3c0-14.9-25.8-32.8-40.2-32.8-6.3 0-14.4 4.7-14.4 13.3 0 10.3 25.9 28.7 43.1 28.7 8.6 0 11.5-5.2 11.5-9.2zm116.6-189.5c0-25.8-53.4-26.4-53.4-65.5 0-9.8 6.3-26.4 19-44.2 5.1 29.9 17.2 45.4 43 55.1 51.1 19 58 47.7 58 78.2 0 51.7-36.1 116-129.2 116-74.7 0-128.1-66.7-128.1-122.9 0-15.6 4-32.8 13.8-32.8 8.6 0 11.5 6.9 18.4 13.8 25.8 25.9 54 32.7 94.8 32.7 36.7 0 63.7-14.9 63.7-30.4zm2.3 41.3c-19.7 9.1-27.6 7.5-27.6 27.6 0 7.5-1.7 17.2-1.7 22.4 0 6.9 1.2 10.9 9.2 10.9 20.7 0 53.4-35 53.4-64.9 0-8-4.6-11.4-9.8-11.4-4.6 0-9.7 9.1-23.5 15.4zm-183.2-289.9c0-36.8 87.3-56.3 87.3-101.7 0-7.5-2.9-20.7-8-30.4 30.4 16.6 52.8 44.8 52.8 67.7 0 39.7-41.4 58-41.4 82.7 0 28.7 44.3 33.3 44.3 69 0 29.2-42 63.1-42 101 0 29.3 20.7 53.4 52.3 57.4-10.3 2.3-19.5 4-29.3 4-58 0-117.7-47.6-117.7-104.5 0-28.1 12-52.8 30.4-70.6 16.1 13.8 32.2 23 42.5 23 9.2 0 13.2-4.6 13.2-11.5 0-21.3-84.4-40.8-84.4-86.1zm-300.9 242c2.3-0.4 5.7-0.9 5.7-0.9-1.8-4-2.6-8-2.9-11.4-2-21.5 11.2-38.5 31.2-41.8 22.1-3.7 38.3 11.3 43.5 28.5 4.6-4 11.5-6.8 19-7.8 19.3-2.3 37.9 13 40.1 33.7 1.8 20.1-12.2 36.7-33 40.6-2.1 0.4-4.9 0.7-4.9 0.7 1.8 4 2.9 7.5 3.5 13.2 2.3 21.3-12.1 38-33.3 40.7-20.8 2.8-36.2-9.1-40.8-27.4-4.6 2.8-11.5 4.9-19 5.7-20.7 2.3-38.9-12.6-41.4-32.2-2.7-22.3 15.5-39.2 32.3-41.6zm50.9-0.2c-12 1.4-20.6 12.3-19.2 24.3 1.4 12 12.2 20.6 24.2 19.2 12-1.4 20.6-12.3 19.2-24.3-1.4-12-12.2-20.6-24.2-19.2z"/></svg>