<svg version="1.2" xmlns="http://www.w3.org/2000/svg" viewBox="0 0 1549 1549" width="1549" height="1549"><style>.a{fill:#009}</style><path fill-rule="evenodd" class="a" d="m1210 595.2c-32.8 0-59.3-26.5-59.3-59.2 0-32.7 26.5-59.1 59.3-59.1 32.7 0 59.2 26.4 59.2 59.1 0 32.7-26.5 59.2-59.2 59.2zm-197.4-197.5c-32.7 0-59.1-26.5-59.1-59.2 0-32.7 26.4-59.1 59.1-59.1 32.7 0 59.1 26.4 59.1 59.1 0 32.7-26.4 59.2-59.1 59.2z"/><path fill-rule="evenodd" class="a" d="m1269.2 338.5c0-32.7-26.5-59.1-59.2-59.1-32.8 0-59.3 26.4-59.3 59.1 0 32.7 26.5 59.2 59.3 59.2 32.7 0 59.2-26.5 59.2-59.2zm-395 0c0-32.7-26.4-59.1-59.1-59.1-32.7 0-59.1 26.4-59.1 59.1 0 32.7 26.4 59.2 59.1 59.2 32.7 0 59.1-26.5 59.1-59.2zm433.3-181.6c-22.9 23.3-22.9 60.6 0 83.9 23.4 23.3 60.7 23.3 84 0 23-23.3 23-60.6 0-83.9-23.3-23-60.6-23-84 0zm139.6-139.3c-23 23-23 60.7 0 83.6 23.3 23.4 60.6 23.4 83.9 0 23-22.9 23-60.6 0-83.6-23.3-23.3-60.6-23.3-83.9 0zm-770.3 320.9c0-32.7-26.5-59.1-59.2-59.1-32.7 0-59.1 26.4-59.1 59.1 0 32.7 26.4 59.2 59.1 59.2 32.7 0 59.2-26.5 59.2-59.2zm-197.2 0c0-32.7-26.5-59.1-59.3-59.1-32.8 0-59.3 26.4-59.3 59.1 0 32.7 26.5 59.2 59.3 59.2 32.8 0 59.3-26.5 59.3-59.2zm789.6 395c0-32.7-26.5-59.1-59.2-59.1-32.8 0-59.3 26.4-59.3 59.1 0 32.7 26.5 59.2 59.3 59.2 32.7 0 59.2-26.5 59.2-59.2zm-756 558.4c0-32.8-26.4-59.3-59.1-59.3-32.7 0-59.1 26.5-59.1 59.3 0 32.8 26.4 59.3 59.1 59.3 32.7 0 59.1-26.5 59.1-59.3zm-197.1-197.5c0-32.8-26.5-59.3-59.3-59.3-32.8 0-59.3 26.5-59.3 59.3 0 32.8 26.5 59.3 59.3 59.3 32.8 0 59.3-26.5 59.3-59.3z"/><path fill-rule="evenodd" class="a" d="m513.2 1094.4c0-32.8-26.4-59.3-59.1-59.3-32.7 0-59.1 26.5-59.1 59.3 0 32.8 26.4 59.3 59.1 59.3 32.7 0 59.1-26.5 59.1-59.3zm-394.6 0c0-32.8-26.5-59.3-59.2-59.3-32.6 0-59.1 26.5-59.1 59.3 0 32.8 26.5 59.3 59.1 59.3 32.7 0 59.2-26.5 59.2-59.3zm394.6 395c0-32.8-26.4-59.3-59.1-59.3-32.7 0-59.1 26.5-59.1 59.3 0 32.8 26.4 59.3 59.1 59.3 32.7 0 59.1-26.5 59.1-59.3zm756-558.5c0-32.8-26.5-59.3-59.2-59.3-32.8 0-59.3 26.5-59.3 59.3 0 32.7 26.5 59.2 59.3 59.2 32.7 0 59.2-26.5 59.2-59.2z"/><path fill-rule="evenodd" class="a" d="m1210 1187.6c-32.8 0-59.3-26.5-59.3-59.2 0-32.8 26.5-59.3 59.3-59.3 32.7 0 59.2 26.5 59.2 59.3 0 32.7-26.5 59.2-59.2 59.2zm-476.6-313.4c-32.8 0-59.3-26.4-59.3-59.1 0-32.7 26.5-59.1 59.3-59.1 32.8 0 59.3 26.4 59.3 59.1 0 32.7-26.5 59.1-59.3 59.1zm181.5-240.4c23.3 23 23.3 60.6 0 83.6-23 23.3-60.6 23.3-83.6 0-23.3-23-23.3-60.6 0-83.6 23-23.3 60.6-23.3 83.6 0zm139.5-139.9c23 23.3 23 60.6 0 83.9-23.3 23.3-60.6 23.3-83.6 0-23.3-23.3-23.3-60.6 0-83.9 23-23 60.3-23 83.6 0zm-418.9 419c23.3 23.3 23.3 60.6 0 83.9-23 23-60.3 23-83.6 0-23.4-23.3-23.4-60.6 0-83.9 23.3-23 60.6-23 83.6 0z"/></svg>