<svg version="1.2" xmlns="http://www.w3.org/2000/svg" viewBox="0 0 1550 737" width="1550" height="737">
	<title>JSW_Group_logo-svg</title>
	<defs>
		<clipPath clipPathUnits="userSpaceOnUse" id="cp1">
			<path d="m4139.33 1v735.16h-4139.35v-735.16z"/>
		</clipPath>
	</defs>
	<style>
		.s0 { fill: #ed1c24 } 
		.s1 { fill: #2744a0 } 
	</style>
	<g id="layer1">
		<g id="g36892">
			<g id="g34981">
				<path id="path34983" class="s0" d="m882.1 89.1l-127.2 86.7c275.2 7.9 462.2-79.9 462.2-79.9-199.4 97-409.9 105.8-498.3 104.5l-151.5 103.3c0 0 473.6-11.7 775-302.7 0 0-186.3 138.1-460.2 88.1z"/>
			</g>
			<g id="g34985">
				<g id="Clip-Path: g34987" clip-path="url(#cp1)">
					<g id="g34987">
						<g id="g34993">
							<path id="path34995" class="s1" d="m1451.8 301.8h-12.4c0 0 5.6 8.4-2.2 19.9l-105 142.8 12.7-135.9c2.5-17.4 16.2-26.8 16.2-26.8h-44.8-113l-119.7 162.7 12.6-135c0.1-0.1 0.2-0.3 0.2-0.4 2.4-17.7 16.3-27.2 16.3-27.2h-13.9l-143.8-0.1v0.1c-7.5-0.4-368.1-17.1-422 79.1 22.1-44.6 37.2-77.1 38.1-78.6h-261.7c2.7 0.9 17.2 8.7 12.3 22.3-13.7 46.6-46.9 154.4-84 234.2-48.5 104.6-158 142.9-233.1 169.7-6.9 2.4-5.8 7.5 1.4 7.5 184.8 1.2 336.6-13.6 451.3-212.5 26.6-46.2 52.8-96.6 73.3-137.7-1.4 3-2.5 6.2-3.2 9.5-23.6 107.3 176.9 114.2 173.9 139.8-2.6 22.6-122 15.7-200.9-10.3-0.3-0.1-0.7-0.3-1.1-0.5-15-5-21.4-13.8-21.4-13.8l0.6 6.1c0 0 0 0 0 0 0 0 0.1 0.4 0.1 0.9l3.2 28.6c3.2 30.2 7.4 72.7 7.4 72.7 0 0 417.5 52.8 425.2-83 5.9-102.7-195.2-115.1-193-137.6 2-21.1 99.9-23.7 159.3-14.9 0.2 0 0.3 0 0.5 0.1 26.5 4.1 30.3 18.5 30.3 18.5l4.3-10c0 0 0.1 0 0.1 0 0.1-0.5 35.9-82.5 39-89.6l-26.9 287.9q0 0.1 0 0.1c-2.4 17.7-16.4 27.2-16.4 27.2h28.2l129.5 0.1 119.8-163-12.7 135.9c-2.4 17.5-16.3 27-16.3 27h13.8 143.9l232.2-315.7z"/>
						</g>
					</g>
				</g>
			</g>
		</g>
	</g>
</svg>