<svg version="1.2" xmlns="http://www.w3.org/2000/svg" viewBox="0 0 1519 791" width="1519" height="791">
	<title>Mahindra_logo-svg</title>
	<style>
		.s0 { opacity: 1;fill: #e41936 } 
	</style>
	<g>
		<path fill-rule="evenodd" class="s0" d="m0.9 1.3q656.9-2 1313.8 3.9 157.2 35.9 199.5 191.3 5.8 296.8 3.9 593.6-101.7 0-203.4 0 2-273.4-3.9-546.7-21.5-52.7-74.3-74.2-95.1-12.9-191.6-11.7-80.1 1.9-160.3 3.9-10.7 4.4-19.5 11.7-5.9 308.5-3.9 617-101.7 0-203.4 0 2-308.5-3.9-617-8.8-7.3-19.5-11.7-203.4-7.8-406.7 0-10.8 4.4-19.6 11.7-5.8 308.5-3.9 617-101.6 0-203.3 0 0-394.4 0-788.8z"/>
	</g>
</svg>