<svg version="1.2" xmlns="http://www.w3.org/2000/svg" viewBox="0 0 1540 1061" width="1540" height="1061"><style>.a{fill:#0067af}</style><path fill-rule="evenodd" class="a" d="m1214.8 242.2l4.4-35.3c9.7-64.1 30.9-54.1 84.1-54.1 14.1 0 27.7 0 41.8 0 16.8 0 22.8-0.7 32 12.3 9.2 13 11.9 15.9 9.8 39.7-1.7 15.8-3.8 32.4-4.9 48.3h15.7l-8.7 67c-4.3 0.7-8.7-0.7-11.9 1.4-11.4 10.1-13 92.3-16.8 116.8-6.6 39.7-10.9 77.2-14.7 119h-61.9l28.3-237.2h-15.8l-28.7 237.2h-61.9c-0.6-28.8 14.6-77.1 11.9-113.2-13.5 0-27.6 0-41.2 0-16.8 0-24.4-4.3-30.4 13.7l40.2 37.5-31.5 60.6c-3.8-2.2-10.9-9.4-14.7-13l-41.2-38.9c-36.4-37.5-24.4-26-20.6-84.4 52.1-10.1 40.1-83.6 36.3-90.8-3.2-5.8-6-4.4-10.3-8l8.7-67h98.8c2.1-0.7 1.6 2.9 3.2-11.6zm94.4 11.6c6 0 9.8-0.7 10.4-8.7 0.5-5.7 0-13-2.8-16.6-4.3-5-22.7-4.3-29.8-2.8-12.5 2.1-10.9 12.9-10.9 28.1 9.3 1.4 23.4 0.7 33.1 0zm-102.5 126.9c8.7 0 16.3 2.8 20.1-5.1 5.9-12.2 7.6-37.5 7.6-54.1h-54.3c0 10.1 1.1 20.2 1.6 29.6 0.6 10.1 0 20.2 0.6 29.6 7.6 0.7 16.2 0.7 24.4 0zm-642.6-126.9c0 7.2-7 62.7-8.7 66.3-1.6 1.4-23.9 0.7-25.5 0.7-1.1 26-5.4 52.7-9.2 77.2-3.8 25.9-6.5 49-8.7 76.4-2.2 20.9-4.3 58.4-10.3 75-2.7 7.2-3.3 8.6-10.3 8.6h-49.9l10.8-106.7h-39.6l-9.2 57.7c-7.1 0-14.7 0-22.3 0-13 0-14.1 2.2-28.2-20.2-3.3-5.7-6-10.1-9.8-15.8-3.2-5.1-6.5-11.6-9.7-17.4-5.5-10.1-4.4-7.9-2.2-21.6 1.1-8.6 4.9-42.5 7-48.3 9.3-1.4 91.8-2.2 110.2-2.2 9.2-0.7 10.9-0.7 14.1-10 4.4-13.7 4.4-36.1 4.4-52.7l-130.3 0.7c-1.1 35.4-8.1 67.8-17.9 95.2-7 19.5-26 57-41.8 63.5-2.2-2.9-28.2-39.7-29.3-42.6 7.1-15.1 15.2-28.1 20.1-49 4.3-18 5.4-46.9 6.5-67.1h-48.8c-3.8 0-3.3 2.2-3.8 8-1.7 16.6-14.1 120.4-13.6 122.5 4.3 5.8 13.6 13.8 18.4 18.8 7.6 7.9 51.1 49.7 54.3 54.8l-27.7 62c-4.8-2.2-21.1-17.3-26.6-21.6-22.7-19.5-53.1-45.5-73.8-65.6-13.5-13-10.8-10.1-7.6-36.1 4.9-41.8 13.6-103.8 16.9-142h-17.4l7.6-67.1c5.4-3.6 370.7-0.7 411.9-1.4z"/><path fill-rule="evenodd" class="a" d="m960.8 152.1h81.4c12 0 25.5-0.7 33.7 8.7 15.2 18 6.5 62 6 91.5h10.8l-8.7 67.8-12.5 0.7c-0.5 33.2-8.6 81.5-14.1 115.4-4.3 28.8-3.8 90.8-13.5 115.3-2.7 7.3-4.9 6.5-12 6.5-15.2 0-36.3 0.8-49.9 0l28.2-237.2-17.4 0.7-27.1 236.5h-60.8l9.8-77.8c-19 1.4-34.7 11.5-54.3 13-20.6 2.1-38.5-5.1-43.9-25.3-3.8-14.4 13-122.6 15.2-147.1h-10.9c-0.5-10.1 1.6-31.7 3.3-42.5 3.2-23.8 5.9-24.5 16.8-24.5 11.4 0 64 2.1 71.1-0.7 0.5-54.1 6.5-98.8 48.8-101zm55.4 101.7c0-32.5 2.2-28.9-21.7-28.9-15.2 0-19.6-2.1-22.8 28.9zm-106.4 156.4c6.5-3.6 10.3-10.8 13.6-20.9 6-17.3 8.7-46.1 9.8-67.8h-40.8c-3.2 1.5-2.7 17.3-3.2 21-1.6 16.5-5.4 55.5-5.4 67 5.4 3.6 19 5 26 0.7zm-232.8-256.6h81.4c12.5 0 26-1.5 34.2 7.9 15.2 17.3 7 63.4 6.5 91.6h11.9c0 12.2-2.7 30.2-4.3 43.2-3.8 35.3 1.1 20.2-19 25.2l-27.1 236.5h-60.8l27.1-237.2c-18.4 0-16.8-2.1-17.9 6.5 0 2.9-0.5 5.1-0.5 7.2-0.6 5.1-1.1 9.4-1.7 14.4-1 9.4-2.1 18.8-3.2 28.9l-6 51.2c-0.5 5.7 0 3.6-2.2 5.7-16.8 0-33.1 0-49.9 0-11.9 0-35.8-5.7-33.1 20.9 3.3 33.2 57 21 79.8 21-2.7 12.2-4.9 17.3-5.4 32.4-1.7 39.7 1 49-49.4 49-33.7 0.8-59.7-15.1-81.4-45.4-20.1-28.1-19.6-76.4 4.9-109.6 34.1-46.1 75.4-36 85.2-39.6 0.5-15.9 2.7-10.1 2.7-41.9h-67.9c-1.6-14.4 2.2-46.8 6-58.4 3.8-11.5 7.6-9.3 17.9-9.3 8.7 0 17.4 0.7 25.5 0 1.1-51.2 7.1-99.5 46.7-100.2zm57.5 100.9c0-29.6 0-28.8-22.2-28.8-16.9 0-21.2 5.7-22.3 28.1zm-459.7 339.6c23.4-1.5 50 0 73.3 0 8.2 0 9.2-0.8 13.6 6.4 13 21 41.8 112.5 54.8 145.7l9.8 22.3c1.6 3.6 1.6 4.4 4.3 5.8 1.6-6.5 4.3-36.1 5.4-45.4 2.2-15.9 3.8-30.3 5.5-45.4l8.1-68.5c0.5-3.6 0.5-19.5 3.8-20.9h75.4l-40.1 310h-102.6l-53.7-156.5-21.2 156.5h-76.5z"/><path fill-rule="evenodd" class="a" d="m801.8 594.1c23.9-0.7 47.8 0 71.7 0 19.5 0 52.6-2.9 70.5 1.4 35.8 8.7 66.2 47.6 73.3 93 3.8 26-0.6 61.3-8.2 82.2-7.6 22.4-18.4 39.7-33.1 51.2-36.9 28.8-84.1 14.4-129.7 18l-4.9 64.2h-78.1zm138.4 132.6c3.2-23-9.3-31-24.4-31.7-15.8-0.7-31.5 0-47.3 0-2.1 1.5-1 0-2.1 5.1l-6.5 46.8c21.1 0.7 76.5 5.8 80.3-20.2zm358.7 85.1c-10.8 32.4-19.5 42.5-41.8 63.4-22.2 21-59.7 36.1-95 32.5-29.3-3.6-61.8-23.1-83.5-49-9.8-12.3-20.1-29.6-26.6-44.7-15.2-36.8-14.1-94.5 1.6-130.5 7.1-17.3 17.4-34.6 26.6-44.7 23.3-25.3 44-44.7 86.3-44.7 43.4 0 66.2 4.3 95 33.1 11.4 11.6 20.6 24.6 29.3 41.1 4.3 8 18.4 41.9 17.9 54.8-17.9 0-35.3 0-53.2 0-58.6 0-29.9 1.5-58.6-28.1-4.9-5-10.3-10.1-17.9-10.8-15.2-1.4-31 6.5-39.1 17.3-4.9 5.8-8.1 10.8-11.4 20.9-15.2 51.2 17.4 103.1 56.4 90.8 7.1-2.1 13.6-7.2 17.4-11.5 2.7-2.9 4.3-5.8 6.5-8.6 2.2-2.9 3.3-8.7 5.4-10.9h95c-1.6 8.7-6.5 20.2-10.3 29.6z"/><path fill-rule="evenodd" class="a" d="m545.1 694.3h67.9l-26.1 209.8h74.4c5.4-49.8 13.5-93 18.4-142.8 1.6-15.1 6.5-59.8 13.6-65.6 4.9-4.3 51.5 0.8 62.4-2.1l9.8-99.5h-185.1c-16.3 0-20.6-5.1-25.5 15.1-3.8 18.8-9.8 65.6-9.8 85.1z"/><path fill-rule="evenodd" class="a" d="m140.8 0.7h1258.5c77.1 0 140.1 83.7 140.1 186v687.8c0 102.4-63 186-140.1 186h-1258.5c-77.1 0-140-83.6-140-186v-687.8c0-102.3 62.9-186 140-186zm-81.4 186v687.8c0 59.9 36.4 108.2 81.4 108.2h1258.5c45.1 0 81.4-48.3 81.4-108.2v-687.8c0-59.8-36.3-108.1-81.4-108.1h-1258.5c-45 0-81.4 48.3-81.4 108.1z"/></svg>