<svg version="1.2" xmlns="http://www.w3.org/2000/svg" viewBox="0 0 1500 1500" width="1500" height="1500">
	<title>ONGC_Logo-svg</title>
	<style>
		.s0 { fill: #a41d23 } 
		.s1 { fill: #ffffff } 
	</style>
	<g id="#a41d23ff">
		<path id="path5" fill-rule="evenodd" class="s0" d="m0 0h1500v1500h-1500zm973.3 53.7c-13.3 5.6-26.1 15.1-31.5 28.9-4.2 10.3-1.7 22.2 4 31.3q-73.4 0-146.8 0 0 16.7 0 33.4 79.2 0 158.4 0c0.1 8.6 0 17.3 0 25.9-34.9 0-69.9 0-104.9 0q0 16.7 0 33.4c9.7 0.8 20.4-2.5 29.2 3.1 10.3 7.5 13.8 21.3 12.1 33.4-1.3 9.9-6.5 20.3-16.2 24-7.4 3.1-16-0.5-20.7-6.5-7.3-9.1-8.8-21.4-6.9-32.5-14.9 0.1-29.7 0-44.6 0-2.1 12.2-1.2 25.1 3.7 36.6 8.4 20.8 28.2 36.3 50.3 39.8 17.1 2.9 35.4-0.9 49.6-10.9 15.2-10.4 25.8-27.5 27.8-46 1.8-14.2-2-28.8-9.3-41.1 9.9 0 19.9-0.1 29.8 0.2 0 32.2 0 64.5 0 96.7q21.2 0 42.4 0 0-78 0-156.1c9.4 0.1 18.8-0.2 28.2 0.2-0.2 52-0.1 103.9 0 155.9q21.1 0 42.1 0 0-78 0-156.1c7.4 0 14.9 0 22.3 0.1 0.2-11.2 0.1-22.4 0.1-33.6q-6.3 0.1-12.6 0.2c5.3-8.8 8.1-19.8 4.6-29.7-5.1-14.8-18.4-24.9-32.4-30.8-24.9-10-53.8-10.1-78.7 0.2zm307.1-0.6c-13.7 5.5-27 15-32.7 29.2-4.5 10.3-2.1 22.3 3.8 31.5-44.9 0-89.9 0.1-134.8 0.1q0 16.7 0 33.4c18.8 0 37.5 0 56.2 0.1 3.2 0.1 6.6-0.6 9.5 1.2 14.3 7.3 20.7 25.6 16.5 40.7-2.5 8.4-9.3 16.2-18.3 17.2-7.4 1-14.2-3.1-19.9-7.3 0-9.5-0.2-19-0.1-28.5q-21.2 0-42.3 0c0 27.1-0.1 54.1 0.1 81.2 0.2 14.9 3.6 31 14 42.2 6.5 7.1 16.2 10.2 25.6 10.1 28.1 0 56.2 0.2 84.3-0.1-0.2-11.1-0.1-22.2-0.1-33.4-22.5 0.1-45 0.1-67.5-0.2-4.6-0.4-11.1-0.7-12.6-6.1-2.2-9.1-1.4-18.7-1.5-28 21.1 13.5 49.9 5.9 66.6-11.3q22-0.1 43.9-0.1c0.1 26.2-0.1 52.3 0.1 78.5 14-0.1 28-0.2 42 0 0.4-52.1 0-104.1 0.2-156.2 8.6 0 17.2 0 25.7 0 0.1 52 0 104.1 0.1 156.1q21.1 0 42.3 0 0-78 0-156.1c5.8-0.3 11.8 0.5 17.5-0.4 0.2-11 0.1-21.9 0-32.9q-6.8-0.1-13.5-0.1c5.8-9.2 8.2-21.2 3.8-31.6-5.7-14.1-18.9-23.6-32.6-29.2-24.2-9.5-52-9.5-76.3 0zm-1020.8-3.7c0 10.9 0 21.7 0 32.6 13.1 0.2 27.2-1.8 39 5 9.5 5.7 11.8 17.2 15 26.9-26 0.1-52.1 0-78.1 0q-0.1 16.7 0 33.4 7.6 0 15.2 0c0.1 29.9 0 59.9 0 89.8q-8.4 0-16.7 0c-1.8-12.8-7.1-25-15.6-34.8 5.2-8.6 9.5-18.1 10-28.3 1.2-14.7-3.9-29.6-13.5-40.8-12.8-15.3-33.1-23.5-52.9-22.7-19.5 0.4-38.7 10-50.3 25.7-8.5 11.1-12.3 25.3-11.3 39.2 13.5 0 27-0.1 40.4 0-0.6-6.2 0.5-12.7 4.2-17.8 7.5-11.3 24.6-13.2 34.7-4.3 10.6 8.3 10.8 25.9 0.7 34.7-6.4 6.2-16.1 3.9-24.2 4.4 0.1 11.1-0.1 22.3 0.1 33.4 7.7 0.3 15.7-1.2 23.1 1.3 9.7 5.3 13.5 18.1 10 28.3-3.2 9.6-12.6 16.8-22.7 17.3-12.3 0.9-24.5-8.4-26.7-20.5-1.1-4.9 0.2-9.9 1.2-14.7-14.4 0.2-28.7 0-43 0.1-2.4 24 10.6 48.3 31.3 60.4 19.8 12.2 45.9 13.6 66.8 3.4 15.9-7.4 28.7-21.4 34.6-38 6.6-0.3 13.2 0 19.8-0.1 0 13.4 0 26.7 0 40.1q21.2 0 42.3 0c0-52 0-104.1 0-156.1q12.9 0 25.8 0 0 78.1 0 156.1 21.1 0 42.3 0 0-78 0-156c5.2-0.1 10.5-0.1 15.8-0.1q0-16.7 0-33.5c-6 0-12.1 0.1-18.1 0-4.6-10.3-9.3-20.6-13.7-31-2.8-7.7-5.6-15.9-11.7-21.7-8.3-8.4-20.4-11.6-31.9-11.7-14-0.1-27.9 0-41.9 0zm134.5 64.4c-0.1 11.2 0 22.4 0 33.5q8.3 0 16.6 0c0 35.4 0 70.7 0 106.1 0 13.8 3.5 28.5 13.3 38.8 7.4 7.9 18.5 11.3 29.1 11.2 34.7 0 69.5 0 104.2 0 0-11.2 0-22.4 0-33.6-26.8 0-53.5 0.1-80.2 0-6.7-0.3-14.7-0.3-19.5-5.8-4.4-6-4.1-13.8-4.4-20.9-0.1-31.9 0-63.9-0.1-95.8 13.5 0.1 27-0.1 40.5 0.1 6.4 0 11.5 5 14.6 10.2 7.2 11.7 9.5 27.5 2.5 39.8-5.6 9.7-19.9 12.9-28.8 5.5-3.3 13.1-7.4 25.8-11.2 38.7 20.7 7.7 45.1 3.9 62.8-9.4 13.2-9.8 23.2-25 24.2-41.7 1.2-15.6-5.2-30.7-14.1-43.2q86 0 172 0 0 14.8 0 29.7c-28.6 0.2-57.1-0.3-85.7 0.3-14.9 0.1-30.4 3.3-42.3 12.7-17.7 13.4-24.1 38.2-18.5 59.1 4.8 18.3 19.4 33.3 37.1 39.8 16.9 6.4 36.6 5.2 52.6-3.4 14.9-7.8 26.4-22.1 30.2-38.7 3-12.1 0.7-24.9-3.9-36.3 10.1 0.2 20.2 0.1 30.4 0.1 0.3 30.9 0 61.8 0.1 92.8 14.1-0.2 28.2 0 42.3-0.1 0.1-52 0-104 0.1-156q9.1 0 18.4 0 0-16.7 0-33.4c-127.5 0-254.9 0.1-382.3-0.1zm175.2 297.8c-70.9 39.3-128.1 102.7-160.3 177.1-28.2 65.9-37.3 140.2-23.8 210.7 4.2 21.3 9.2 42.7 17.2 62.9 2.2 7.1 10.3 4.9 16 5 41.5-0.3 83.1-0.4 124.6-0.8 39.9 0.1 79.7-0.9 119.5-0.2 2.9-1.9 3.9-5.5 4.7-8.6 4-31.5 8.6-62.9 12.8-94.4 8.7-61.5 16.7-123.2 26-184.7 1.3 104.6 1.8 209.1 2.5 313.7q-144.9 0-289.7 0c5.5 8 11.3 15.9 16.7 24.1 62.3 0.3 124.6 0.1 187 0.2-3.3 2.4-6.9 4.4-10 7.1l0.1 1.4-0.5-1.3c-38.3 27.9-69.5 66-88.2 109.6q13 5.2 26 10.5c24.9-56.9 72.8-103.4 130.8-125.9 9.1-2.7 18.8-1 28.2-1.3-0.2 12.6 0.2 25.2 0 37.8-55.4 14.3-101.8 59.1-117.6 114.1 8.9 2.6 18 4.8 26.9 7.3 13.1-42.9 47.9-79 91-92.1-0.1 12.4 0.4 24.8 0.1 37.2-26.2 14.6-42.3 44.6-41.2 74.4 54.6-0.1 109.3-0.4 163.9-0.4 1.1-30.1-15.6-60.2-42.1-74.6-0.4-12.4-0.2-24.8-0.4-37.2 43.1 13.2 78.6 48.4 92.1 91.4 8.9-2.5 17.9-5 26.8-7.5-16.3-55-63.5-99.1-119-113.1 0.2-12.6-0.2-25.2 0-37.8 12.5 0 25.9-1.9 37.3 4.7 53.8 23.5 98.7 67.2 122.9 120.8 8.6-3.6 17.3-7 25.9-10.8-11.7-25.8-27.4-49.8-46.7-70.6-15.5-17.2-33.7-31.9-52.9-44.9 62.1-0.1 124.2-0.1 186.2-0.1 5.7-8.1 11.3-16.2 16.9-24.4-96.6 0.2-193.2 0.4-289.8 1.1-0.3-103.9-1-207.8-1.4-311.7l2 4.5c13 89.6 26.8 179.1 39.9 268.7 0.3 4.4 1.7 8.7 4.5 12.1 15.4-1.3 30.9-0.5 46.3-0.9 69.1-0.5 138.1-0.6 207.1-1 6.3 0.6 8-6.6 9.7-11.1 15.7-49.4 23.1-101.8 17.8-153.5-5.8-61.9-27.9-122-63.1-173.1-28.7-41.7-65.8-77.4-108.7-104.3-54.9-34.7-119.4-54.2-184.3-56 1.7 58.1 0.9 116.2 1.4 174.3 0.7 156.9 1.2 313.9 1.9 470.8-8.5-0.9-17.1-0.8-25.5 0.1-1-137.4-2.1-274.9-3.1-412.3-0.3-77.7-1.8-155.3-1.1-232.9-57 2.2-113.4 18.1-163.3 45.9zm-337.4 749.2c-11.4 1.2-22.7 3.1-33.4 6.9-15.5 5.2-29.7 15.4-37.2 30.2-13.6 26.4-13.3 57.1-13.2 86 0.4 26.6-1.7 53.4 3.6 79.6 3.7 19.6 12.4 40.1 30.2 50.8 23.6 14.4 52.2 15.9 79.1 15.9 31.7-0.3 64.6 2.4 94.8-9.4 15.4-5.5 28.7-17.4 35-32.6 12.3-28 10.9-59.3 11-89.1-0.3-25.2 1.3-50.6-4.2-75.3-3.8-18.5-12.5-37.5-29-47.9-21.3-13.2-47.1-15.6-71.6-16.2-21.7-0.1-43.5-0.7-65.1 1.1zm244-0.8c0.2 89-0.3 178.1 0.3 267.1 19-0.3 38 0 57.1-0.1q0-69.3 0-138.6c0.1-8.5 1-17.2 3.7-25.3 5.5-17.7 18.9-32.7 35.7-40.5 14.6-6.7 31.2-7.3 47-5.4 17.1 2.1 33.4 12.7 40.7 28.5 7.5 15.2 5.5 32.4 5.4 48.7 0 44.2-0.1 88.4-0.1 132.6q28.7 0 57.4 0 0-73.8 0-147.6c0-20 1.1-40.7-5.8-59.8-7.9-23.3-25.8-43.1-48.5-52.7-16.5-6.7-34.7-6.5-52.2-7.2-15.1-0.5-31 0-44.7 7.1-16.4 8.7-30.5 21.5-41.9 36.2-0.2-14.4 0.1-28.7-0.2-43.1-18 0.2-35.9 0-53.9 0.1zm355.3 11.4c-15.4 6.8-27.2 20.5-32.6 36.3-10.8 28.7-8.6 59.8-8.9 89.8 0.2 23.2-0.9 46.8 4.4 69.7 3.9 18.4 12.9 37.1 29.5 47.2 22 13.1 48.3 15.6 73.4 15.8 20-0.2 40.1 0.5 60.1-0.8 19.8-1.9 40.4-5.6 56.9-17.6 13.9-10.1 21.1-26.8 24.9-43.1 6.6-29.8 4-60.4 4.6-90.7-38.5-0.2-77.1 0-115.6-0.1q0 28.8 0 57.6c19.2 0 38.3 0 57.4 0-0.5 8.8-0.8 18.5-6.7 25.6-6.8 8.9-18.4 12-29.1 12-21 0-42 0-63 0-9 0-18.5-1.1-26.1-6.3-8-5.2-12.4-14.9-12.7-24.3-1-25.5-0.3-51-0.4-76.4 0.8-11.7-1-24.7 5.7-35 6.2-9.6 18.1-13.5 29.1-13.6 20.5-0.3 41 0 61.5-0.1 11.9-0.4 25.4 0.9 34 10.1 7.3 7.6 7.7 18.7 8 28.6 19.2 0 38.5 0 57.7 0-1.5-24-4.8-49.9-20.5-69.2-9.4-11.5-23.5-17.6-37.5-21.6-26.8-7.1-54.9-5.4-82.3-5.7-24.3 0.2-49.5 1.4-71.8 11.8zm317.7 2.8c-14.6 8-24.3 22.8-29.1 38.4-8.5 26.9-6.9 55.5-7.1 83.4 0.3 19.7-0.8 39.6 2.2 59.3 2.2 15.6 6.6 31.4 15.8 44.4 10.1 13.9 26.2 21.7 42.5 25.6 21.5 5.5 43.8 5 65.8 5 19.9-0.1 40.1 0.5 59.8-3.4 14.6-2.7 29.3-7.6 41-17.2 9.8-8.4 16.1-20.2 19.8-32.5 4.7-15 6-30.7 6.7-46.3-19.2 0-38.5 0-57.8 0-0.7 10.1-0.1 21.2-6.5 29.7-6.7 9.4-18.9 12.5-29.9 12.6-22 0-44 0-66-0.1-11-0.1-23.1-3.6-29.7-13-5.7-7.6-5.9-17.5-6.1-26.6-0.2-25.5-0.3-51 0.1-76.5 0.5-9 0.5-18.8 6-26.4 6.2-9 17.6-12.8 28.1-12.9 21.5-0.4 43-0.1 64.5-0.2 11.3-0.2 24.1 1.6 32 10.6 7.7 8.7 7.3 21.1 7.6 32q28.9 0 57.8 0c-1-22.8-3.6-46.8-15.9-66.7-8.9-14.5-24.8-23.3-40.9-27.6-28.4-7.8-58.1-5.9-87.1-6-25.1 0.2-51.3 2-73.6 14.4z"/>
		<path id="path7" class="s0" d="m1002.6 81.8c9-2.8 19.2-1.9 27.3 3 4.5 2.8 8.4 7.3 9 12.7 0.6 6.8-4.2 13.1-10.1 16-8.9 0.9-17.9 0.1-26.8 0.5-10.2 0.8-18.1-11.3-14.3-20.4 2.7-6.1 8.7-10 14.9-11.8z"/>
		<path id="path9" class="s0" d="m1307.2 82c12.2-4.1 28-1.5 35.4 9.8 5 7.8-0.3 18.2-8.1 21.7-8.8 0.8-17.7 0.3-26.5 0.4-10.6 1.5-19.2-12.3-13.9-21.5 2.7-5.1 7.7-8.5 13.1-10.4z"/>
		<path id="path11" class="s0" d="m1233.5 147.3c12.5 0.1 25.1-0.1 37.7 0.1-0.1 14.7-0.1 29.4-0.1 44.1-8.7 0.2-17.4 0-26.2 0.1 2.1-15.6-2-31.7-11.4-44.3z"/>
		<path id="path13" class="s0" d="m623.1 212.3c10.7-3.2 22.6 3.9 26 14.3 5 12.8-3.5 29.3-17.4 31.1-12.8 2-24.8-9.6-24.7-22.2-0.3-10.1 6.2-20.4 16.1-23.2z"/>
		<path id="path15" class="s0" d="m483.5 513.4c59.8-72.2 150.1-118.4 243.8-123.2-28.8 143.3-57.6 286.7-86.3 430.1-1.2 5.5-0.4 15-8 15.6-71.4 0.2-142.9 0.2-214.3 0.3-10.5-35.7-16.5-72.9-15.4-110.1 1.5-77.3 30.5-153.6 80.2-212.7z"/>
		<path id="path17" class="s0" d="m764.7 390.1c63.2 2.7 125.4 23.8 177.5 59.6 43 29.4 79.2 68.7 105.1 114 31.8 55.3 47.7 119.6 45.1 183.3-1.1 29-6.2 57.7-14.1 85.5-70.9 1-141.9 1.3-212.8 2.2-3.4 0.5-6.8-1.7-7.7-5-5.6-29.7-12.4-59.2-18.5-88.8-24.9-116.9-49.9-233.8-74.6-350.8z"/>
		<path id="path19" class="s0" d="m228.8 1219.1c5.1-1.5 10.4-1.3 15.7-1.5 20-0.3 40 0 59.9-0.1 9.1-0.1 18.7 0.8 26.5 5.8 7.1 4.7 11.6 13 12.3 21.4 1.1 16.1 0.8 32.2 0.8 48.3 0 17.5 0.4 35.1-1.1 52.6-0.8 8.5-5.1 16.8-12.3 21.5-7.6 5.2-17.1 6.1-26.1 6.1-20.5 0-41 0-61.5 0-10.1-0.1-21.1-2.3-28.5-9.8-5.4-5.5-8.2-13.2-8.5-20.8-0.8-21.1-0.3-42.1-0.4-63.1 0.1-13.5-0.6-27.1 2.1-40.4 2.5-10 11.4-17.3 21-20z"/>
	</g>
	<g id="#ffffffff">
		<path id="path22" fill-rule="evenodd" class="s1" d="m973.3 53.7c24.9-10.3 53.8-10.2 78.7-0.2 14 5.9 27.3 16 32.4 30.8 3.5 9.9 0.7 20.9-4.6 29.7q6.3-0.1 12.6-0.1c0 11.1 0.1 22.3-0.1 33.5-7.4-0.1-14.9-0.1-22.3-0.1q0 78.1 0 156.1-21 0-42.1 0c-0.1-52-0.2-103.9 0-155.9-9.4-0.4-18.8-0.1-28.2-0.2q0 78.1 0 156.1-21.2 0-42.4 0c0-32.2 0-64.5 0-96.7-9.9-0.3-19.9-0.1-29.8-0.2 7.3 12.3 11.1 26.9 9.3 41.1-2 18.5-12.6 35.6-27.8 46-14.2 10-32.5 13.8-49.6 10.9-22.1-3.5-41.9-19-50.3-39.8-4.9-11.5-5.8-24.4-3.7-36.6 14.9 0 29.7 0.1 44.6 0-1.9 11.1-0.4 23.4 6.9 32.5 4.7 6 13.3 9.6 20.7 6.5 9.7-3.7 14.9-14.1 16.2-24 1.7-12.1-1.8-25.9-12.1-33.4-8.8-5.6-19.5-2.3-29.2-3.1q0-16.7 0-33.4c35 0 70 0 104.9 0 0-8.6 0.1-17.3 0-25.9q-79.2 0-158.4 0 0-16.7 0-33.4 73.4 0 146.8 0c-5.7-9.1-8.2-21-4-31.3 5.4-13.8 18.2-23.3 31.5-28.9zm29.3 28.1c-6.2 1.8-12.2 5.7-14.8 11.8-3.9 9.1 4 21.2 14.2 20.4 8.9-0.4 17.9 0.4 26.8-0.5 5.9-2.9 10.7-9.2 10.1-16-0.6-5.4-4.5-9.9-9-12.7-8.1-4.9-18.3-5.8-27.3-3z"/>
		<path id="path24" fill-rule="evenodd" class="s1" d="m1280.4 53.1c24.3-9.5 52.1-9.4 76.3 0 13.7 5.6 26.9 15.1 32.6 29.2 4.4 10.4 2 22.4-3.8 31.6q6.7 0 13.5 0.1c0.1 11 0.2 21.9 0 32.9-5.7 0.9-11.7 0.1-17.5 0.4q0 78.1 0 156.1-21.2 0-42.3 0c-0.1-52 0-104-0.1-156.1-8.5 0-17.1 0-25.7 0-0.2 52.1 0.2 104.1-0.2 156.2-14-0.2-28-0.1-42 0-0.2-26.2 0-52.3-0.1-78.5q-21.9 0-43.9 0.1c-16.7 17.2-45.5 24.8-66.6 11.3 0.1 9.3-0.7 18.9 1.5 28 1.5 5.4 8 5.7 12.6 6.1 22.5 0.3 45 0.3 67.5 0.2 0 11.2-0.1 22.3 0.1 33.4-28.1 0.3-56.2 0.1-84.3 0.1-9.4 0.1-19.1-3-25.6-10.1-10.4-11.2-13.8-27.3-14-42.2-0.2-27.1-0.1-54.1-0.1-81.2q21.1 0 42.3 0c-0.1 9.5 0.1 19 0.1 28.5 5.7 4.2 12.5 8.3 19.9 7.3 9-1 15.8-8.8 18.3-17.2 4.2-15.1-2.2-33.4-16.5-40.7-2.9-1.8-6.3-1.1-9.5-1.2-18.7-0.1-37.4-0.1-56.2-0.1q0-16.7 0-33.4c44.9 0 89.9-0.1 134.8 0-5.9-9.3-8.3-21.3-3.8-31.6 5.7-14.2 19-23.7 32.7-29.2zm26.8 28.9c-5.4 1.9-10.4 5.3-13.1 10.4-5.3 9.2 3.3 23 13.9 21.5 8.8-0.1 17.7 0.4 26.5-0.4 7.8-3.5 13.1-13.9 8.1-21.7-7.4-11.3-23.2-13.9-35.4-9.8zm-73.7 65.3c9.4 12.6 13.5 28.7 11.4 44.3 8.8-0.1 17.5 0.1 26.2 0 0-14.8 0-29.5 0.1-44.2-12.6-0.2-25.2 0-37.7-0.1z"/>
		<path id="path26" class="s1" d="m259.6 49.4c14 0 27.9-0.1 41.9 0 11.5 0.1 23.6 3.3 31.9 11.7 6.1 5.8 8.9 14 11.7 21.7 4.4 10.4 9.1 20.7 13.7 31 6 0.1 12.1 0.1 18.1 0.1q0 16.7 0 33.4c-5.3 0-10.6 0-15.8 0.1q0 78 0 156-21.2 0-42.3 0 0-78 0-156.1-12.9 0-25.8 0c0 52.1 0 104.1 0 156.1q-21.1 0-42.3 0c0-13.4 0-26.7 0-40.1-6.6 0.1-13.2-0.2-19.8 0.1-5.9 16.6-18.7 30.6-34.6 38-20.9 10.2-47 8.8-66.8-3.4-20.7-12.1-33.7-36.4-31.3-60.4 14.3-0.1 28.6 0.1 43-0.1-1 4.8-2.3 9.8-1.2 14.7 2.2 12.1 14.4 21.4 26.7 20.5 10.1-0.5 19.5-7.7 22.7-17.3 3.5-10.2-0.3-23-10-28.3-7.4-2.5-15.4-1-23.1-1.3-0.2-11.1 0-22.3-0.1-33.4 8.1-0.5 17.8 1.8 24.2-4.4 10.1-8.8 9.9-26.4-0.7-34.7-10.1-8.9-27.2-7-34.7 4.3-3.7 5.1-4.8 11.6-4.2 17.8-13.5-0.1-26.9 0-40.4 0-1-13.9 2.8-28.1 11.3-39.2 11.6-15.7 30.8-25.3 50.3-25.7 19.8-0.8 40.1 7.4 52.9 22.7 9.6 11.2 14.7 26.1 13.5 40.8-0.5 10.2-4.8 19.7-10 28.3 8.5 9.8 13.8 22 15.6 34.8q8.3 0 16.7 0c0-29.9 0.1-59.9 0-89.8q-7.6 0-15.2 0-0.1-16.7 0-33.4c26 0 52.1 0.1 78.1 0-3.2-9.7-5.5-21.2-15-26.9-11.8-6.8-25.9-4.8-39-5 0-10.9 0-21.7 0-32.6z"/>
		<path id="path28" fill-rule="evenodd" class="s1" d="m394.1 113.9c127.4 0.1 254.8 0 382.3 0q0 16.7 0 33.4-9.3 0-18.4 0c-0.1 52 0 104-0.1 156-14.1 0.1-28.2-0.1-42.3 0.1-0.1-31 0.2-61.9-0.1-92.8-10.2 0-20.3 0.1-30.4-0.1 4.6 11.4 6.9 24.2 3.9 36.3-3.8 16.6-15.3 30.9-30.2 38.7-16 8.6-35.7 9.8-52.6 3.4-17.7-6.5-32.3-21.5-37.1-39.8-5.6-20.9 0.8-45.7 18.5-59.1 11.9-9.4 27.4-12.6 42.3-12.7 28.6-0.6 57.1-0.1 85.7-0.3q0-14.9 0-29.7-86 0-172 0c8.9 12.5 15.3 27.6 14.1 43.2-1 16.7-11 31.9-24.2 41.7-17.7 13.3-42.1 17.1-62.8 9.4 3.8-12.9 7.9-25.6 11.2-38.7 8.9 7.4 23.2 4.2 28.8-5.5 7-12.3 4.7-28.1-2.5-39.8-3.1-5.2-8.2-10.2-14.6-10.2-13.5-0.2-27 0-40.5-0.1 0.1 31.9 0 63.9 0 95.8 0.4 7.1 0.1 14.9 4.5 20.9 4.8 5.5 12.8 5.5 19.5 5.8 26.7 0.1 53.4 0 80.2 0.1 0 11.1 0 22.3 0 33.5-34.7 0-69.5 0-104.2 0-10.6 0.1-21.7-3.3-29.1-11.2-9.8-10.3-13.3-25-13.3-38.8 0-35.4 0-70.7 0-106.1q-8.3 0-16.6 0c0-11.1-0.1-22.3 0-33.5zm229 98.5c-9.9 2.8-16.4 13.1-16.1 23.2-0.1 12.6 11.9 24.2 24.7 22.2 13.9-1.8 22.4-18.3 17.4-31.1-3.4-10.4-15.3-17.5-26-14.3z"/>
		<path id="path30" fill-rule="evenodd" class="s1" d="m569.3 411.6c49.9-27.8 106.3-43.6 163.3-45.9-0.7 77.6 0.8 155.2 1.1 232.9 1 137.4 2.1 274.9 3.1 412.3 8.4-0.9 17-1 25.5-0.1-0.7-156.9-1.2-313.9-1.9-470.8-0.5-58.1 0.3-116.2-1.4-174.3 64.9 1.8 129.4 21.3 184.3 56 42.9 26.9 80 62.6 108.7 104.3 35.2 51.1 57.3 111.2 63.1 173.1 5.3 51.7-2.1 104.1-17.8 153.5-1.7 4.5-3.4 11.7-9.7 11.1-69 0.4-138 0.5-207.1 1-15.4 0.4-30.9-0.4-46.3 0.9-2.8-3.4-4.2-7.7-4.5-12.1-13.1-89.6-26.9-179.1-39.9-268.7l-2-4.5c0.4 103.9 1.1 207.8 1.4 311.7 96.6-0.7 193.2-0.9 289.8-1.1-5.6 8.2-11.2 16.3-16.9 24.4-62 0-124.1 0-186.2 0.1 19.2 13 37.4 27.7 52.9 44.9 19.3 20.8 35 44.8 46.7 70.6-8.6 3.8-17.3 7.2-25.9 10.8-24.2-53.6-69.1-97.3-122.9-120.8-11.4-6.6-24.8-4.7-37.3-4.7-0.2 12.6 0.2 25.2 0 37.8 55.5 14 102.7 58.1 119 113.1-8.9 2.5-17.9 5-26.8 7.5-13.5-43-49-78.2-92.1-91.4 0.2 12.4 0 24.8 0.4 37.2 26.5 14.4 43.2 44.5 42.1 74.6-54.6 0-109.3 0.3-163.9 0.4-1.1-29.8 15-59.8 41.2-74.4 0.3-12.4-0.2-24.8-0.1-37.2-43.1 13.1-77.9 49.2-91 92.1-8.9-2.5-18-4.7-26.9-7.3 15.8-55 62.2-99.8 117.6-114.1 0.2-12.6-0.2-25.2 0-37.8-9.4 0.3-19.1-1.4-28.2 1.3-58 22.5-105.9 69-130.8 125.9q-13-5.3-26-10.5c18.7-43.6 49.9-81.6 88.2-109.6l0.5 1.3-0.1-1.4c3.1-2.7 6.7-4.7 10-7.1-62.4-0.1-124.7 0.1-187-0.2-5.4-8.2-11.2-16.1-16.7-24.1q144.8 0 289.7 0c-0.7-104.6-1.2-209.1-2.5-313.7-9.3 61.5-17.3 123.2-26 184.7-4.2 31.5-8.8 62.9-12.8 94.4-0.8 3.1-1.8 6.7-4.7 8.6-39.8-0.7-79.6 0.3-119.5 0.2-41.5 0.4-83.1 0.5-124.6 0.8-5.7-0.1-13.8 2.1-16-5-8-20.2-13-41.6-17.2-62.9-13.5-70.5-4.4-144.8 23.8-210.7 32.2-74.4 89.4-137.8 160.3-177.1zm-85.8 101.8c-49.7 59.1-78.7 135.4-80.2 212.7-1.1 37.2 4.9 74.4 15.4 110.1 71.4-0.1 142.9-0.1 214.3-0.3 7.6-0.6 6.8-10.1 8-15.6 28.7-143.4 57.5-286.8 86.3-430.1-93.7 4.8-184 51-243.8 123.2zm281.2-123.3c24.7 117 49.7 233.9 74.6 350.8 6.1 29.6 12.9 59.1 18.5 88.8 0.9 3.3 4.3 5.5 7.7 5 70.9-0.9 141.9-1.2 212.8-2.2 7.9-27.8 13-56.5 14.1-85.5 2.6-63.7-13.3-128-45.1-183.3-25.9-45.3-62.1-84.6-105.1-114-52.1-35.8-114.3-56.9-177.5-59.6z"/>
		<path id="path32" fill-rule="evenodd" class="s1" d="m231.9 1160.8c21.6-1.8 43.4-1.2 65.1-1.1 24.5 0.6 50.3 3 71.5 16.2 16.6 10.4 25.3 29.4 29.1 47.9 5.5 24.7 3.9 50.1 4.2 75.3-0.1 29.8 1.3 61.1-11.1 89.1-6.2 15.2-19.5 27.1-34.9 32.6-30.2 11.8-63.1 9.1-94.8 9.4-26.9 0-55.5-1.5-79.1-15.9-17.8-10.7-26.5-31.1-30.3-50.8-5.2-26.2-3.1-53-3.5-79.6-0.1-28.9-0.4-59.6 13.2-86 7.4-14.8 21.7-25 37.2-30.2 10.7-3.8 22-5.7 33.4-6.9zm-3.2 58.3c-9.6 2.7-18.5 10-21 20-2.7 13.3-2 26.9-2.1 40.4 0.1 21-0.4 42 0.4 63.1 0.3 7.6 3.1 15.3 8.5 20.8 7.4 7.5 18.4 9.7 28.5 9.8 20.5 0 41 0 61.5 0 9 0 18.5-0.9 26.1-6.1 7.2-4.7 11.5-13 12.3-21.5 1.5-17.5 1.1-35.1 1.1-52.6 0-16.1 0.3-32.2-0.8-48.3-0.7-8.4-5.2-16.7-12.3-21.4-7.8-5-17.4-5.9-26.5-5.8-19.9 0.1-39.9-0.2-59.9 0.1-5.3 0.2-10.6 0-15.8 1.5z"/>
		<path id="path34" class="s1" d="m475.9 1160c18-0.1 35.9 0.1 53.9-0.1 0.3 14.4 0 28.7 0.2 43.1 11.4-14.7 25.5-27.4 41.9-36.2 13.7-7.1 29.6-7.6 44.7-7.1 17.5 0.7 35.7 0.5 52.2 7.2 22.7 9.6 40.6 29.4 48.5 52.7 6.9 19.1 5.8 39.8 5.8 59.8q0 73.8 0 147.6-28.7 0-57.4 0c0-44.2 0.1-88.4 0.1-132.6 0.1-16.3 2.1-33.5-5.4-48.7-7.3-15.8-23.6-26.4-40.7-28.5-15.8-1.9-32.4-1.3-47 5.4-16.8 7.8-30.2 22.8-35.7 40.5-2.7 8.2-3.6 16.8-3.7 25.3q0 69.3 0 138.6c-19.1 0.1-38.1-0.2-57.1 0.1-0.6-89-0.1-178.1-0.3-267.1z"/>
		<path id="path36" class="s1" d="m831.2 1171.4c22.3-10.4 47.5-11.6 71.8-11.8 27.4 0.3 55.5-1.4 82.3 5.7 14 4 28.1 10.1 37.5 21.6 15.7 19.3 19 45.2 20.5 69.2-19.2 0-38.5 0-57.7 0-0.3-9.9-0.7-21-8-28.6-8.6-9.2-22.1-10.5-34-10.1-20.5 0.1-41-0.2-61.5 0.1-11 0.1-22.9 4-29.1 13.6-6.7 10.3-4.9 23.3-5.7 35 0.1 25.4-0.6 50.9 0.4 76.4 0.3 9.4 4.7 19.1 12.7 24.3 7.6 5.3 17.1 6.3 26.1 6.3 21 0 42 0 63 0 10.7 0 22.3-3.1 29.1-12 5.9-7.1 6.2-16.8 6.7-25.6-19.1 0-38.2 0-57.4 0q0-28.8 0-57.6c38.5 0.1 77.1-0.1 115.6 0.1-0.6 30.3 2 60.9-4.6 90.7-3.8 16.3-11 33-24.9 43.1-16.5 12-37.1 15.8-56.9 17.6-20 1.3-40.1 0.6-60.1 0.8-25.1-0.2-51.4-2.7-73.4-15.8-16.6-10.1-25.6-28.8-29.5-47.2-5.3-22.9-4.2-46.5-4.4-69.7 0.3-30-1.9-61.1 8.9-89.8 5.4-15.8 17.2-29.5 32.6-36.3z"/>
		<path id="path38" class="s1" d="m1148.9 1174.2c22.3-12.4 48.5-14.2 73.6-14.4 29 0.1 58.7-1.8 87.1 6 16.1 4.3 32 13.1 40.9 27.6 12.3 19.9 14.9 43.9 15.9 66.8q-28.9 0-57.8 0c-0.3-11 0.1-23.4-7.6-32.1-7.9-9-20.7-10.8-32-10.6-21.5 0.1-43-0.2-64.5 0.2-10.5 0.1-21.9 3.9-28.1 12.9-5.5 7.6-5.5 17.4-6 26.4-0.4 25.5-0.3 51-0.1 76.5 0.2 9.1 0.4 19 6.1 26.6 6.6 9.4 18.7 12.9 29.7 13 22 0.1 44 0.1 66 0.1 11-0.1 23.1-3.2 29.9-12.6 6.4-8.5 5.8-19.6 6.5-29.7 19.3 0 38.6 0 57.8 0-0.7 15.6-2 31.3-6.7 46.3-3.7 12.3-10 24.1-19.8 32.5-11.7 9.6-26.4 14.5-41 17.2-19.7 3.9-39.9 3.3-59.8 3.4-22 0-44.3 0.5-65.8-5-16.3-3.9-32.5-11.7-42.5-25.6-9.2-13-13.6-28.8-15.8-44.4-3-19.7-1.9-39.6-2.2-59.3 0.2-27.9-1.4-56.5 7.1-83.4 4.8-15.6 14.5-30.4 29.1-38.4z"/>
	</g>
</svg>