<svg version="1.2" xmlns="http://www.w3.org/2000/svg" viewBox="0 0 1552 1641" width="1552" height="1641"><style>.a{fill:#808083}.b{fill:#f49123}.c{fill:#f9d0b0}</style><path fill-rule="evenodd" class="a" d="m1269.8 1342.9c-100.6 177.8-284.2 297-494.4 297-210.2 0-393.5-119.2-494.4-297-168-106.4-281-300.3-281-522.4 0-222.3 113-416.2 281-522.5 100.9-177.8 284.2-297.2 494.4-297.2 210.2 0 393.8 119.4 494.4 297.2 168.1 106.3 280.9 300.2 280.9 522.5 0 222.1-112.8 416-280.9 522.4zm-142.4-522.4c0-205.7-157.4-372-352-372-194.6 0-351.9 166.3-351.9 372 0 205.7 157.3 372 351.9 372 194.6 0 352-166.3 352-372z"/><path class="b" d="m974.3 211.1c89.1 0 173.1 21.9 248.4 60-100-147-262.8-243.1-447.3-243.1-304.2 0-550.9 260.7-550.9 582.2 0 239.1 136.5 444.2 331.5 533.8-95.5-72.4-158.2-189.9-158.2-323.6 0.2-336.4 258.2-609.3 576.5-609.3zm-397.7 1218.6c-89.1 0-173-21.9-248.3-60 100 147 262.7 243.2 447.1 243.2 304.2 0 550.8-260.7 550.8-582.3 0-239.1-136.4-444.2-331.3-533.8 95.5 72.5 158.2 190 158.2 323.6 0 336.6-258.2 609.3-576.5 609.3z"/><path class="c" d="m1525.2 820.5c0-321.6-246.7-582.3-550.9-582.3-226.1 0-420.3 144.2-505.2 350.3 68.7-100.9 179.9-167.1 306.3-167.1 318.5 0 576.5 272.7 576.5 609.2 0 94.1-20.8 182.9-56.8 262.6 139.1-105.8 230.1-277.8 230.1-472.7zm-1326.2-210.3c0-94 20.7-182.9 56.7-262.4-139.1 105.7-230 277.7-230 472.7 0 321.4 246.6 582.1 550.9 582.1 226.1 0 420.1-144.2 505-350.2-68.5 100.8-179.8 167.1-306.2 167.1-318.4 0-576.4-272.7-576.4-609.3z"/></svg>