<svg version="1.2" xmlns="http://www.w3.org/2000/svg" viewBox="0 0 1549 954" width="1549" height="954">
	<title>TCS</title>
	<style>
		.s0 { fill: #000000 } 
	</style>
	<path id="path1" class="s0" d="m1430.6 551.5l-114.9-78.6c-44.9-31.7-64.8-60.6-64.8-95.2 0-44.1 36.7-71.6 88.5-71.6 66 0 96.9 30.4 136.1 30.4 30.9 0 52.1-20.6 52.1-51.1 0-21.9-11.4-39.9-40.8-53.6-46.4-22.2-96.9-30.4-151.6-30.4-57.4 0-108 16.5-144.6 44.1-6.9 5.6-13.9 11-20.9 18-42.2 44.1-77.3 108.8-105.4 199.8l-32.2 104.7c-57.5 184.6-148.8 272.8-290.6 272.8-155.7 0-253.9-106.2-253.9-263.2 0-157.1 98.2-264.6 240-264.6q9.3 0 18 0.5 1.1 0 2.1 0.3 8 0.2 15.7 1.3 1.3 0 2.6 0.2 7.7 0.8 15.2 2.1 1 0.3 2.3 0.3 7.8 1.2 15.2 3.1 0.8 0 1.3 0.2c22.2 4.9 42.8 12.1 62.4 21.2 18.1 8.2 33.5 10.8 47.7 10.8 33.5 0 56-21.9 56-54.9 0-20.7-12.7-41.6-42.1-55.2-53.3-26.1-122.2-41.3-196.4-41.3-221.7 0-374.9 154.2-374.9 378.8 0 59.3 10.9 113.4 31 161.1-29.2 62.2-73.8 95.2-132 95.2-70.1 0-116.5-40-116.5-130.7v-388.9h164.2c37.9 0 63.1-21.9 63.1-53.6 0-31.7-25.2-53.6-63.1-53.6h-164v-140.8c0-41.3-28.1-68.8-67.5-68.8-39.2 0-67.3 27.5-67.3 68.8v272.8 379c0 151.6 88.4 231.6 238.4 231.6 33.8 0 64.8-5.7 92.9-15.3 48.9-18 88.6-50 116.5-95.6 66.8 70.6 165.5 112.1 289 112.1 64.4 0 120.6-12.3 171.2-38.6 102.3-52.4 175.5-158.3 226.1-321l29.4-94.9c19.6 25.8 47.1 50.3 84.3 75.8l105.2 71.4c47.6 33.3 67.2 60.8 67.2 100.6 0 59.3-47.7 99.2-116.5 99.2-66 0-121.9-33-152.9-33-30.9 0-51.8 20.6-51.8 51.1 0 21.9 11.1 39.9 40.5 53.6 40.7 19.3 106.7 35.8 165.8 35.8 74.2 0 136.1-21.9 179.6-60.5 39.2-35.9 63.2-86.9 63.2-146.2-0.2-82.6-33.8-137.7-118.1-195.5z"/>
</svg>