<svg version="1.2" xmlns="http://www.w3.org/2000/svg" viewBox="0 0 1552 1552" width="1552" height="1552">
	<title>TITAN</title>
	<style>
		.s0 { fill: #ffffff } 
		.s1 { fill: #15616e } 
		.s2 { fill: #00b2ad } 
	</style>
	<path class="s0" d="m0.5 776.8l775.3-72.9 775.4 72.9-702.8 72.6-72.6 702.6-72.7-702.6z"/>
	<path class="s1" d="m775.8 1.3v702.6l286.7-213.9z"/>
	<path class="s2" d="m1062.5 490l-286.7 213.9 775.4 72.9z"/>
	<path class="s1" d="m848.6 849.4l213.9 214 488.7-286.8z"/>
	<path fill-rule="evenodd" class="s2" d="m775.8 1552l286.7-488.6-213.9-214zm-286.8-1062l286.8 213.9v-702.7z"/>
	<path class="s1" d="m489 490l286.8 213.9-775.3 72.9z"/>
	<path class="s2" d="m703.1 849.4l-214.1 214-488.5-286.8z"/>
	<path class="s1" d="m775.8 1552l-286.8-488.6 214.1-214z"/>
	<path class="s0" d="m0.5 776.8l775.3-72.9 775.4 72.9-702.8 72.6-72.6 702.6-72.7-702.6z"/>
	<path class="s0" d="m0.5 776.8l775.3-72.9 775.4 72.9-702.8 72.6-72.6 702.6-72.7-702.6z"/>
	<path class="s1" d="m775.8 1.3v702.6l286.7-213.9z"/>
	<path class="s2" d="m1062.5 490l-286.7 213.9 775.4 72.9z"/>
	<path class="s1" d="m848.6 849.4l213.9 214 488.7-286.8z"/>
	<path fill-rule="evenodd" class="s2" d="m775.8 1552l286.7-488.6-213.9-214zm-286.8-1062l286.8 213.9v-702.7z"/>
	<path class="s1" d="m489 490l286.8 213.9-775.3 72.9z"/>
	<path class="s2" d="m703.1 849.4l-214.1 214-488.5-286.8z"/>
	<path class="s1" d="m775.8 1552l-286.8-488.6 214.1-214z"/>
</svg>